<svg width="592" height="757" viewBox="0 0 592 757" fill="none" xmlns="http://www.w3.org/2000/svg">
<path d="M242.037 258.408L266.31 335.67C267.043 338.002 265.653 340.469 263.278 341.051L204.485 356.371L180.332 277.658L235.869 255.48C238.385 254.475 241.224 255.823 242.037 258.408Z" fill="#FF725E"/>
<path d="M263.591 341.113C263.499 341.142 263.406 341.168 263.311 341.191L204.388 356.545L204.347 356.413L180.155 277.573L235.815 255.346C237.072 254.845 238.433 254.888 239.653 255.468C240.874 256.047 241.769 257.076 242.174 258.365L266.447 335.627C266.813 336.793 266.685 338.023 266.085 339.088C265.532 340.068 264.653 340.779 263.591 341.113Z" fill="#E0E0E0"/>
<path d="M233.822 255.875L239.744 256.078L264.653 335.364L265.167 337.003L259.403 338.804L233.822 255.875Z" fill="#EBEBEB"/>
<path d="M180.045 277.566C180.045 277.566 198.161 263.138 233.677 255.589L259.402 338.926L203.745 355.095L180.045 277.566Z" fill="white"/>
<path d="M180.045 277.566C180.045 277.566 180.086 277.69 180.162 277.934C180.238 278.178 180.35 278.54 180.498 279.016C180.792 279.971 181.228 281.385 181.794 283.225C182.924 286.906 184.576 292.289 186.669 299.108C190.845 312.743 196.778 332.116 203.81 355.075L203.726 355.03C220.516 350.15 239.418 344.657 259.381 338.855L259.33 338.949C259.026 337.964 258.697 336.899 258.367 335.83C249.075 305.709 240.489 277.878 233.619 255.607L233.689 255.648C225.009 257.492 217.238 259.778 210.525 262.186C203.81 264.593 198.152 267.117 193.624 269.406C189.094 271.695 185.692 273.744 183.432 275.213C182.871 275.587 182.376 275.917 181.949 276.201C181.529 276.495 181.176 276.743 180.891 276.942C180.346 277.345 180.094 277.53 180.045 277.566C180.045 277.566 180.112 277.51 180.252 277.4C180.394 277.293 180.604 277.136 180.881 276.928C181.164 276.727 181.516 276.477 181.934 276.179C182.36 275.892 182.854 275.56 183.413 275.183C185.668 273.704 189.066 271.643 193.594 269.344C198.12 267.045 203.777 264.511 210.493 262.094C217.207 259.676 224.981 257.381 233.664 255.529L233.718 255.517L233.734 255.57C240.612 277.839 249.207 305.666 258.51 335.785C258.84 336.853 259.169 337.918 259.473 338.904L259.496 338.977L259.423 338.998C239.458 344.795 220.554 350.284 203.764 355.159L203.7 355.178L203.681 355.114C196.67 332.134 190.753 312.743 186.59 299.096C184.514 292.277 182.875 286.893 181.754 283.213C181.196 281.375 180.768 279.963 180.479 279.009C180.336 278.534 180.227 278.173 180.154 277.929C180.08 277.688 180.045 277.566 180.045 277.566Z" fill="#E0E0E0"/>
<path d="M182.403 276.582C184.458 282.447 191.323 303.921 191.323 303.921L192.973 298.393L197.326 301.245L187.341 271.502L183.201 274.227C182.427 274.738 182.097 275.707 182.403 276.582Z" fill="#E0E0E0"/>
<path d="M261.097 338.283C261.097 338.283 261.07 338.213 261.023 338.073C260.976 337.929 260.909 337.722 260.821 337.452C260.645 336.901 260.389 336.096 260.058 335.06C259.405 332.975 258.462 329.966 257.298 326.249C254.984 318.804 251.842 308.502 248.398 297.116C244.939 285.733 241.807 275.429 239.539 267.966C238.394 264.243 237.467 261.229 236.825 259.142C236.506 258.103 236.259 257.295 236.089 256.742C236.008 256.47 235.945 256.262 235.901 256.117C235.859 255.976 235.842 255.902 235.842 255.902C235.842 255.902 235.869 255.972 235.916 256.112C235.963 256.256 236.03 256.463 236.118 256.733C236.294 257.284 236.551 258.089 236.881 259.124C237.534 261.209 238.477 264.217 239.641 267.935C241.955 275.38 245.097 285.683 248.542 297.073C252 308.452 255.131 318.755 257.399 326.218C258.544 329.941 259.471 332.955 260.114 335.043C260.433 336.082 260.68 336.89 260.85 337.443C260.932 337.715 260.994 337.923 261.038 338.068C261.079 338.209 261.097 338.283 261.097 338.283Z" fill="#E0E0E0"/>
<path d="M262.612 337.806C262.572 337.818 256.853 319.518 249.839 296.937C242.822 274.348 237.168 256.032 237.208 256.019C237.248 256.007 242.966 274.303 249.982 296.892C256.996 319.474 262.652 337.794 262.612 337.806Z" fill="#E0E0E0"/>
<path d="M116.114 295.634L141.24 375.611C141.695 377.06 143.369 377.8 144.905 377.231L204.485 356.371C205.907 355.844 204.156 353.493 203.734 352.151L164.181 282.843C163.759 281.501 162.279 280.748 160.812 281.13L118.193 292.21C116.608 292.621 115.659 294.185 116.114 295.634Z" fill="#E0E0E0"/>
<path d="M124.29 290.227L151.346 373.993L204.113 355.161L180.331 277.658L124.29 290.227Z" fill="#EBEBEB"/>
<path d="M128.681 287.359C128.681 287.359 159.112 271.228 180.341 278.295L204.123 355.798L155.407 372.429L128.681 287.359Z" fill="white"/>
<path d="M128.672 286.723C128.865 287.336 139.79 322.016 155.465 371.772L155.375 371.727C169.531 366.893 185.057 361.59 201.276 356.052C202.224 355.728 203.17 355.406 204.09 355.091L204.042 355.184C195.049 325.855 186.789 298.92 180.275 277.676L180.313 277.715C179.329 277.436 178.372 277.105 177.389 276.913C177.145 276.858 176.903 276.803 176.66 276.748C176.418 276.691 176.177 276.637 175.932 276.602C175.445 276.522 174.961 276.442 174.479 276.363C172.547 276.1 170.647 275.942 168.794 275.938C166.942 275.896 165.141 276.01 163.398 276.139C162.529 276.229 161.671 276.31 160.831 276.417C160.411 276.475 159.995 276.533 159.582 276.591C159.168 276.645 158.76 276.707 158.356 276.78C155.118 277.311 152.134 278.009 149.413 278.754C146.692 279.501 144.233 280.298 142.038 281.071C137.649 282.622 134.314 284.071 132.07 285.095C130.948 285.608 130.099 286.017 129.53 286.298C128.977 286.571 128.724 286.697 128.672 286.723C128.672 286.723 128.958 286.565 129.524 286.28C130.09 285.994 130.938 285.58 132.057 285.061C134.296 284.026 137.628 282.568 142.017 281.006C144.211 280.227 146.671 279.426 149.393 278.673C152.115 277.923 155.101 277.22 158.342 276.684C158.746 276.61 159.155 276.548 159.569 276.493C159.982 276.435 160.399 276.377 160.82 276.318C161.662 276.21 162.52 276.128 163.391 276.037C165.137 275.906 166.94 275.79 168.797 275.83C170.653 275.832 172.559 275.988 174.497 276.25C174.98 276.329 175.465 276.409 175.954 276.489C176.199 276.524 176.442 276.578 176.685 276.635C176.928 276.69 177.172 276.745 177.416 276.8C178.402 276.992 179.364 277.323 180.351 277.603L180.38 277.611L180.389 277.642C186.911 298.883 195.181 325.815 204.186 355.141L204.207 355.21L204.138 355.234C203.217 355.548 202.272 355.871 201.324 356.195C185.105 361.73 169.577 367.03 155.421 371.861L155.353 371.884L155.332 371.815C139.734 322.033 128.863 287.335 128.672 286.723Z" fill="#E0E0E0"/>
<path d="M118.335 294.846L124.29 290.228L151.346 373.994L143.408 374.656L118.335 294.846Z" fill="#EBEBEB"/>
<path d="M144.764 372.407C144.725 372.419 139.16 354.82 132.338 333.103C125.513 311.378 120.014 293.763 120.054 293.751C120.094 293.739 125.657 311.334 132.481 333.058C139.303 354.775 144.803 372.394 144.764 372.407Z" fill="#E0E0E0"/>
<path d="M125.651 305.171L123.909 320.447L132.809 327.954L125.651 305.171Z" fill="#F5F5F5"/>
<path d="M146.45 371.375C146.41 371.387 141.104 354.609 134.599 333.904C128.092 313.192 122.851 296.397 122.891 296.384C122.931 296.372 128.236 313.147 134.743 333.859C141.247 354.564 146.489 371.362 146.45 371.375Z" fill="#E0E0E0"/>
<path d="M149.146 373.757C149.106 373.769 143.504 356.049 136.635 334.183C129.763 312.309 124.226 294.573 124.266 294.561C124.305 294.549 129.906 312.265 136.778 334.138C143.647 356.005 149.185 373.745 149.146 373.757Z" fill="#E0E0E0"/>
<path d="M174.651 288.278C174.649 288.31 174.165 288.323 173.292 288.317C172.42 288.304 171.156 288.318 169.599 288.373C166.485 288.478 162.186 288.871 157.536 289.863C152.887 290.865 148.804 292.271 145.921 293.452C144.478 294.04 143.32 294.545 142.53 294.915C141.736 295.278 141.289 295.465 141.274 295.436C141.259 295.407 141.678 295.165 142.449 294.751C143.217 294.33 144.358 293.777 145.791 293.146C148.655 291.881 152.753 290.414 157.436 289.404C162.12 288.405 166.458 288.062 169.589 288.041C171.155 288.028 172.423 288.065 173.296 288.134C174.171 288.197 174.653 288.246 174.651 288.278Z" fill="#E0E0E0"/>
<path d="M176.652 294.97C176.65 295.002 176.166 295.015 175.293 295.009C174.421 294.996 173.157 295.01 171.6 295.065C168.486 295.171 164.187 295.563 159.537 296.555C154.888 297.558 150.806 298.963 147.922 300.144C146.479 300.732 145.321 301.238 144.531 301.607C143.737 301.97 143.29 302.157 143.275 302.128C143.26 302.099 143.679 301.857 144.45 301.443C145.218 301.022 146.359 300.468 147.793 299.838C150.657 298.573 154.755 297.106 159.438 296.096C164.122 295.097 168.46 294.754 171.591 294.733C173.157 294.72 174.425 294.757 175.298 294.826C176.172 294.888 176.654 294.937 176.652 294.97Z" fill="#E0E0E0"/>
<path d="M178.653 301.66C178.651 301.692 178.167 301.705 177.294 301.699C176.422 301.686 175.158 301.7 173.601 301.755C170.487 301.86 166.188 302.253 161.538 303.245C156.889 304.247 152.807 305.653 149.923 306.834C148.48 307.422 147.322 307.927 146.532 308.297C145.738 308.66 145.291 308.847 145.276 308.818C145.261 308.789 145.68 308.547 146.451 308.133C147.219 307.712 148.36 307.159 149.794 306.528C152.658 305.263 156.756 303.796 161.439 302.786C166.123 301.787 170.461 301.444 173.592 301.423C175.158 301.41 176.426 301.447 177.299 301.516C178.174 301.579 178.655 301.628 178.653 301.66Z" fill="#E0E0E0"/>
<path d="M180.654 308.353C180.652 308.385 180.168 308.398 179.295 308.392C178.423 308.379 177.159 308.393 175.602 308.448C172.488 308.553 168.189 308.946 163.539 309.938C158.89 310.941 154.808 312.346 151.924 313.527C150.481 314.115 149.323 314.62 148.533 314.99C147.739 315.353 147.292 315.54 147.277 315.511C147.262 315.482 147.681 315.24 148.452 314.826C149.22 314.405 150.361 313.852 151.795 313.221C154.659 311.956 158.757 310.489 163.44 309.479C168.124 308.48 172.462 308.137 175.593 308.116C177.159 308.103 178.427 308.139 179.3 308.209C180.175 308.271 180.656 308.321 180.654 308.353Z" fill="#E0E0E0"/>
<path d="M183.268 315.082C183.266 315.114 182.782 315.127 181.909 315.121C181.037 315.108 179.773 315.122 178.216 315.177C175.102 315.282 170.803 315.675 166.153 316.666C161.504 317.668 157.421 319.074 154.538 320.255C153.095 320.843 151.937 321.348 151.147 321.718C150.353 322.081 149.906 322.268 149.891 322.239C149.876 322.21 150.295 321.968 151.066 321.554C151.834 321.133 152.975 320.58 154.408 319.949C157.272 318.684 161.37 317.217 166.053 316.207C170.737 315.208 175.075 314.865 178.206 314.844C179.772 314.831 181.04 314.868 181.913 314.937C182.788 315 183.269 315.05 183.268 315.082Z" fill="#E0E0E0"/>
<path d="M187.358 323.455C187.356 323.487 186.847 323.5 185.931 323.495C185.473 323.486 184.912 323.489 184.262 323.509C183.611 323.521 182.871 323.527 182.054 323.578C180.418 323.633 178.476 323.813 176.327 324.055C174.181 324.331 171.832 324.708 169.389 325.223C166.949 325.755 164.651 326.375 162.581 327.003C160.521 327.663 158.676 328.296 157.161 328.916C156.395 329.204 155.717 329.503 155.119 329.758C154.517 330.006 154.005 330.234 153.591 330.43C152.757 330.81 152.288 331.007 152.273 330.979C152.258 330.95 152.699 330.698 153.511 330.266C153.914 330.044 154.417 329.792 155.011 329.519C155.602 329.24 156.273 328.919 157.035 328.609C158.542 327.946 160.385 327.277 162.451 326.59C164.526 325.935 166.835 325.298 169.291 324.763C171.749 324.244 174.115 323.878 176.276 323.624C178.441 323.403 180.397 323.257 182.043 323.244C182.865 323.214 183.61 323.231 184.263 323.244C184.916 323.249 185.478 323.273 185.937 323.31C186.854 323.373 187.359 323.422 187.358 323.455Z" fill="#E0E0E0"/>
<path d="M190.002 331.5C190.002 331.532 189.492 331.576 188.571 331.626C187.65 331.664 186.319 331.77 184.681 331.927C181.405 332.258 176.904 332.981 172.042 334.261C167.175 335.528 162.857 336.996 159.734 338.058C158.231 338.568 156.984 338.991 156.032 339.314C155.155 339.604 154.665 339.751 154.654 339.72C154.643 339.69 155.112 339.485 155.969 339.142C156.827 338.8 158.073 338.317 159.623 337.746C162.721 336.603 167.034 335.081 171.924 333.808C176.809 332.522 181.352 331.845 184.651 331.598C186.302 331.482 187.64 331.426 188.566 331.444C189.491 331.449 190.002 331.468 190.002 331.5Z" fill="#E0E0E0"/>
<path d="M191.538 340.277C191.541 340.309 191.042 340.388 190.139 340.504C189.237 340.622 187.931 340.798 186.329 341.078C183.121 341.612 178.727 342.578 173.972 344C169.214 345.418 165.005 347.011 161.993 348.242C160.487 348.859 159.273 349.372 158.439 349.737C157.603 350.097 157.133 350.283 157.119 350.254C157.105 350.225 157.548 349.984 158.363 349.572C159.175 349.155 160.371 348.595 161.865 347.937C164.852 346.624 169.06 344.976 173.839 343.551C178.614 342.122 183.044 341.202 186.279 340.75C187.894 340.51 189.211 340.384 190.122 340.322C191.031 340.262 191.536 340.244 191.538 340.277Z" fill="#E0E0E0"/>
<path d="M226.501 269.181C226.508 269.213 225.956 269.377 224.953 269.647C223.948 269.911 222.499 270.312 220.716 270.829C217.149 271.86 212.265 273.439 207.01 275.551C201.756 277.671 197.14 279.917 193.854 281.646C192.21 282.509 190.888 283.224 189.98 283.73C189.07 284.231 188.558 284.495 188.541 284.467C188.533 284.453 188.648 284.367 188.877 284.215C189.155 284.038 189.488 283.826 189.888 283.572C190.769 283.017 192.069 282.256 193.697 281.354C196.95 279.546 201.562 277.244 206.835 275.117C212.109 272.997 217.029 271.462 220.627 270.51C222.426 270.032 223.891 269.68 224.91 269.47C225.375 269.376 225.762 269.298 226.085 269.233C226.354 269.183 226.498 269.165 226.501 269.181Z" fill="#E0E0E0"/>
<path d="M233.477 282.889C233.482 282.904 233.342 282.962 233.071 283.058C232.747 283.166 232.355 283.296 231.882 283.454C230.778 283.812 229.299 284.293 227.503 284.876C223.811 286.089 218.737 287.848 213.216 290.007C207.695 292.172 202.776 294.326 199.241 295.943C197.527 296.735 196.115 297.386 195.061 297.873C194.607 298.078 194.23 298.249 193.92 298.39C193.657 298.503 193.515 298.556 193.508 298.542C193.501 298.528 193.628 298.447 193.878 298.306C194.178 298.144 194.542 297.947 194.981 297.71C195.942 297.199 197.349 296.491 199.101 295.644C202.604 293.948 207.513 291.74 213.046 289.571C218.579 287.407 223.68 285.694 227.404 284.56C229.265 283.992 230.779 283.556 231.832 283.279C232.315 283.155 232.716 283.052 233.046 282.967C233.324 282.901 233.473 282.874 233.477 282.889Z" fill="#E0E0E0"/>
<path d="M235.374 290.754C235.379 290.77 235.237 290.829 234.963 290.929C234.636 291.041 234.238 291.178 233.757 291.343C232.637 291.712 231.134 292.208 229.307 292.811C225.55 294.05 220.374 295.798 214.699 297.849C209.023 299.903 203.926 301.871 200.246 303.322C198.457 304.027 196.984 304.608 195.887 305.04C195.412 305.221 195.019 305.37 194.696 305.493C194.422 305.592 194.274 305.637 194.268 305.622C194.262 305.607 194.397 305.533 194.659 305.406C194.973 305.261 195.355 305.085 195.816 304.871C196.825 304.414 198.295 303.779 200.121 303.014C203.772 301.483 208.857 299.464 214.54 297.407C220.222 295.354 225.421 293.653 229.207 292.494C231.1 291.914 232.636 291.462 233.704 291.168C234.195 291.036 234.602 290.928 234.936 290.838C235.218 290.768 235.369 290.738 235.374 290.754Z" fill="#E0E0E0"/>
<path d="M238.439 299.386C238.48 299.509 229.219 302.712 217.757 306.539C206.291 310.368 196.966 313.371 196.925 313.248C196.884 313.125 206.143 309.923 217.609 306.094C229.071 302.267 238.398 299.264 238.439 299.386Z" fill="#E0E0E0"/>
<path d="M242.319 307.745C242.359 307.868 233.097 310.986 221.634 314.708C210.167 318.432 200.842 321.349 200.802 321.226C200.762 321.103 210.022 317.986 221.489 314.262C232.952 310.541 242.279 307.622 242.319 307.745Z" fill="#E0E0E0"/>
<path d="M245.287 317.008C245.323 317.132 235.972 319.948 224.403 323.296C212.83 326.645 203.423 329.259 203.387 329.135C203.351 329.011 212.7 326.196 224.273 322.846C235.841 319.498 245.251 316.884 245.287 317.008Z" fill="#E0E0E0"/>
<path d="M245.863 326.431C245.9 326.555 237.658 329.114 227.458 332.146C217.254 335.179 208.954 337.536 208.917 337.412C208.88 337.288 217.12 334.73 227.324 331.697C237.525 328.665 245.826 326.307 245.863 326.431Z" fill="#E0E0E0"/>
<path d="M231.154 275.987C231.158 276.003 231.021 276.056 230.756 276.143C230.437 276.241 230.053 276.359 229.592 276.502C228.509 276.831 227.063 277.27 225.309 277.803C221.701 278.924 216.752 280.593 211.4 282.731C206.048 284.875 201.313 287.079 197.927 288.756C196.29 289.58 194.94 290.259 193.928 290.768C193.496 290.983 193.136 291.163 192.838 291.311C192.586 291.431 192.45 291.487 192.442 291.472C192.434 291.458 192.555 291.374 192.792 291.228C193.079 291.058 193.425 290.853 193.841 290.607C194.755 290.073 196.099 289.337 197.777 288.46C201.131 286.705 205.858 284.446 211.226 282.296C216.594 280.152 221.574 278.528 225.214 277.486C227.034 276.964 228.515 276.57 229.545 276.326C230.016 276.217 230.408 276.127 230.733 276.052C231.005 275.994 231.15 275.971 231.154 275.987Z" fill="#E0E0E0"/>
<path d="M347.175 328.455C347.175 328.455 352.255 335.585 353.34 335.779C354.425 335.973 355.504 336.441 355.504 336.441L350.193 328.205L347.175 328.455Z" fill="#EBEBEB"/>
<path d="M419.125 355.958L353.878 336.067C353.051 335.815 352.582 334.938 352.827 334.097C363.319 298.036 376.252 255.366 380.582 242.885C380.864 242.073 381.729 241.628 382.54 241.876L447.835 261.781C448.67 262.036 449.137 262.927 448.879 263.773L421.103 354.887C420.845 355.733 419.959 356.212 419.125 355.958Z" fill="#E0E0E0"/>
<path d="M418.644 354.283L353.347 334.897L349.18 329.58L376.665 235.982L443.735 258.253L446.134 262.905L418.644 354.283Z" fill="white"/>
<path d="M418.644 354.283L413.925 347.212L442.877 256.997L446.134 262.905L418.644 354.283Z" fill="#F5F5F5"/>
<path d="M414.269 349.422L348.135 329.261C347.297 329.006 346.819 328.126 347.064 327.285C357.55 291.223 370.482 248.552 374.819 236.073C375.101 235.261 375.975 234.819 376.797 235.07L442.979 255.246C443.825 255.504 444.302 256.398 444.044 257.244L416.268 348.358C416.009 349.203 415.114 349.68 414.269 349.422Z" fill="#EBEBEB"/>
<path d="M352.345 330.545C352.291 330.528 358.615 309.626 366.468 283.865C374.324 258.095 380.735 237.224 380.789 237.24C380.843 237.256 374.521 258.154 366.664 283.925C358.811 309.686 352.399 330.561 352.345 330.545Z" fill="#E0E0E0"/>
<path d="M411.355 343.158L358.101 326.923L383.943 242.155L437.197 258.39L411.355 343.158ZM360.066 325.876L410.308 341.192L435.231 259.436L384.989 244.12L360.066 325.876Z" fill="#E0E0E0"/>
<path d="M392.004 328.895L380.885 325.506L379.935 328.624L391.053 332.014L392.004 328.895Z" fill="#E0E0E0"/>
<path d="M412.394 256.12L407.214 254.54L406.263 257.658L411.444 259.238L412.394 256.12Z" fill="#E0E0E0"/>
<path d="M424.42 275.265L385.377 263.362L381.134 277.282L420.176 289.185L424.42 275.265Z" fill="#E0E0E0"/>
<path d="M413.133 291.199L384.38 282.433L382.593 288.296L411.346 297.062L413.133 291.199Z" fill="#E0E0E0"/>
<path d="M374.905 248.873L370.907 247.654L370.139 250.174L374.137 251.393L374.905 248.873Z" fill="#E0E0E0"/>
<path d="M373.719 252.764L369.721 251.545L368.953 254.065L372.951 255.283L373.719 252.764Z" fill="#E0E0E0"/>
<path d="M353.188 320.102L349.486 318.974L348.718 321.492L352.42 322.621L353.188 320.102Z" fill="#E0E0E0"/>
<g opacity="0.3">
<path d="M370.828 262.246L366.83 261.027L353.623 304.348L357.621 305.567L370.828 262.246Z" fill="#E0E0E0"/>
</g>
<path d="M444.864 260.876C444.864 260.876 444.829 261.015 444.75 261.285C444.669 261.558 444.551 261.958 444.397 262.479C444.081 263.532 443.616 265.077 443.019 267.066C441.812 271.051 440.068 276.809 437.914 283.924C433.583 298.156 427.603 317.811 420.997 339.518C419.638 343.975 418.305 348.346 417.029 352.529L417 352.626L416.903 352.596C398.274 346.903 381.878 341.892 370.133 338.302C364.268 336.5 359.565 335.056 356.324 334.06C354.71 333.56 353.46 333.173 352.609 332.909C352.189 332.777 351.869 332.676 351.649 332.607C351.433 332.538 351.324 332.498 351.324 332.498C351.324 332.498 351.437 332.526 351.654 332.589C351.876 332.654 352.198 332.749 352.62 332.874C353.473 333.13 354.726 333.506 356.345 333.991C359.591 334.973 364.299 336.397 370.172 338.174C381.922 341.747 398.325 346.735 416.962 352.402L416.836 352.469C418.111 348.285 419.443 343.914 420.801 339.457C427.429 317.756 433.43 298.108 437.775 283.88C439.956 276.773 441.721 271.021 442.942 267.041C443.555 265.057 444.032 263.516 444.357 262.465C444.52 261.946 444.644 261.549 444.73 261.277C444.815 261.011 444.864 260.876 444.864 260.876Z" fill="#E0E0E0"/>
<path d="M544.527 459.41L34.7245 461.999C16.6465 462.135 1.97931 447.556 1.84288 429.57L0.000948614 65.4271C-0.13549 47.3733 14.4634 32.7258 32.4733 32.5896L542.275 30.0007C560.354 29.8644 575.021 44.4438 575.157 62.4295L576.999 426.572C577.136 444.626 562.537 459.342 544.527 459.41Z" fill="#A3A092" fill-opacity="0.16"/>
<path d="M447.794 408.934C447.937 408.894 450.044 408.292 453.087 407.043C454.055 409.466 454.922 410.892 454.981 410.987C455.329 411.555 456.071 411.73 456.636 411.383C457.206 411.035 457.383 410.291 457.036 409.726C457.023 409.701 456.217 408.367 455.309 406.086C456.878 405.378 458.6 404.529 460.369 403.532C469.093 398.621 474.784 392.448 476.828 385.682C478.688 379.525 477.016 373.036 474.981 366.676C477.276 366.041 479.599 365.49 481.853 364.951C487.668 363.568 492.914 362.317 496.385 360.055C497.767 359.16 498.867 358.101 499.612 356.814C500.345 355.545 500.845 354.236 501.154 352.887C501.158 352.885 501.156 352.881 501.156 352.881C501.16 352.88 501.16 352.876 501.159 352.874C501.163 352.872 501.163 352.872 501.161 352.868C501.182 352.787 501.202 352.705 501.216 352.622C501.221 352.607 501.22 352.588 501.222 352.571C502.203 347.978 501.101 343.004 499.846 338.103C499.961 338.126 500.073 338.152 500.19 338.179C510.991 340.604 522.164 343.109 529.31 333.275C532.42 328.996 533.58 323.881 532.854 317.639C532.406 313.798 531.326 309.888 530.017 305.834C541.016 307.046 552.315 308.057 560.762 296.87C566.442 289.353 565.305 276.881 557.385 259.8C556.869 258.685 556.337 257.585 555.798 256.508C556.675 256.438 557.549 256.368 558.416 256.303C570.117 255.406 580.226 254.632 583.195 248.143C583.473 247.537 583.206 246.821 582.602 246.544C581.994 246.267 581.281 246.532 581.002 247.14C578.624 252.335 568.719 253.095 558.232 253.898C557.035 253.99 555.827 254.084 554.61 254.183C549.451 244.3 544.08 236.762 544.017 236.674C543.63 236.132 542.876 236.008 542.334 236.395C541.791 236.782 541.667 237.536 542.054 238.078C542.178 238.244 547.089 245.172 551.997 254.412C539.487 255.582 526.964 258.035 522.688 268.767C522.681 268.782 522.676 268.797 522.669 268.811C522.662 268.824 522.659 268.834 522.656 268.847C518.487 279.431 522.313 290.632 526.009 301.464C526.188 301.99 526.368 302.515 526.542 303.037C516.984 302.068 507.368 301.924 499.875 310.55C493.135 318.31 494.566 326.995 496.537 334.916C487.658 333.077 478.887 332.251 472.574 339.233C470.91 341.074 469.848 343.023 469.235 345.058C467.372 351.227 469.643 358.137 471.857 364.877C471.875 364.936 471.896 364.996 471.916 365.055C464.185 367.422 457.019 370.975 453.637 378.216C452.892 379.808 452.301 381.383 451.834 382.929C450.332 387.901 450.147 392.55 450.518 396.438C450.517 396.449 450.516 396.461 450.519 396.473C450.523 396.55 450.532 396.625 450.54 396.703C450.703 398.312 450.959 399.789 451.252 401.098C451.55 402.431 451.897 403.662 452.26 404.76C449.273 405.995 447.203 406.595 447.137 406.614C446.728 406.732 446.428 407.046 446.313 407.425C446.248 407.64 446.243 407.873 446.307 408.103C446.486 408.744 447.153 409.117 447.794 408.934ZM553.197 256.727C557.456 265.108 561.413 274.98 561.857 283.369L532.993 261.254C538.535 258.408 545.892 257.374 553.197 256.727ZM525.249 268.915C526.479 266.245 528.379 264.181 530.752 262.574L561.851 286.405C561.65 289.828 560.727 292.911 558.835 295.417C558.499 295.861 558.159 296.283 557.815 296.686L525.249 268.915ZM523.35 281.109C523.112 277.776 523.36 274.495 524.347 271.312L556.153 298.441C554.094 300.394 551.886 301.726 549.564 302.606C549.494 302.392 549.364 302.193 549.177 302.038L523.849 281.353C523.699 281.228 523.528 281.15 523.35 281.109ZM528.291 300.686C526.445 295.276 524.567 289.774 523.725 284.366L547.018 303.39C541.633 304.691 535.724 304.039 529.622 303.367C529.476 303.35 529.33 303.335 529.184 303.319C528.891 302.447 528.595 301.572 528.291 300.686ZM511.141 305.994C516.143 304.536 521.659 304.936 527.388 305.548C529.608 312.295 531.321 318.739 530.387 324.528L511.141 305.994ZM502.607 311.147C504.488 309.218 506.508 307.854 508.635 306.911C508.668 306.954 508.704 306.996 508.743 307.034L529.621 327.138C529.656 327.172 529.694 327.204 529.732 327.232C529.204 328.838 528.431 330.382 527.357 331.858C526.897 332.494 526.416 333.069 525.912 333.59L502.607 311.147ZM499.204 318.778C498.914 318.478 498.509 318.358 498.127 318.427C498.706 316.564 499.631 314.734 501.011 312.963L524.091 335.19C522.087 336.657 519.843 337.448 517.428 337.775L499.204 318.778ZM497.606 320.593L514.266 337.959C510.057 337.924 505.445 336.891 500.718 335.832C500.203 335.715 499.686 335.601 499.169 335.488C497.894 330.504 496.749 325.448 497.606 320.593ZM481.353 336.61C486.034 335.399 491.482 336.287 497.202 337.52C498.368 342.022 499.47 346.351 499.132 350.287L481.353 336.61ZM474.365 340.853C475.682 339.394 477.132 338.33 478.693 337.58C478.739 337.632 478.792 337.683 478.847 337.724L488.747 345.341L498.646 352.958C498.385 353.868 498.015 354.756 497.524 355.611C497.1 356.344 496.481 356.997 495.704 357.587L473.007 342.615C473.395 342.015 473.848 341.426 474.365 340.853ZM488.378 360.679L471.227 353.372C470.77 350.33 470.843 347.44 471.898 344.771L493.399 358.957C491.986 359.635 490.33 360.219 488.525 360.757C488.478 360.726 488.43 360.701 488.378 360.679ZM474.149 364.125C473.264 361.434 472.394 358.791 471.788 356.234L484.776 361.765C483.639 362.05 482.472 362.33 481.295 362.609C478.98 363.163 476.597 363.729 474.236 364.38C474.203 364.297 474.176 364.21 474.149 364.125ZM472.663 367.352C473.585 370.233 474.427 373.129 474.876 375.969L457.926 375.885C461.379 371.619 466.827 369.146 472.663 367.352ZM455.822 379.238C455.983 378.89 456.157 378.552 456.341 378.226C456.464 378.265 456.592 378.29 456.73 378.291L475.159 378.382C475.256 379.789 475.235 381.176 475.05 382.536L453.88 384.5C454.37 382.717 455.018 380.961 455.822 379.238ZM453.324 386.87C453.478 386.922 453.645 386.943 453.819 386.927L474.513 385.007C473.993 386.719 473.238 388.316 472.309 389.812C472.215 389.811 472.118 389.823 472.023 389.852L452.802 394.93C452.638 392.194 452.812 389.506 453.324 386.87ZM453.585 400.482C453.354 399.436 453.172 398.396 453.037 397.363L470.055 392.865C465.671 397.975 459.37 401.567 454.483 403.793C454.161 402.791 453.849 401.68 453.585 400.482Z" fill="#1293AF" fill-opacity="0.65"/>
<path d="M349.971 43.3686C349.987 46.6814 347.315 49.3802 344.002 49.3974L234.139 49.9686C230.824 49.9858 228.124 47.3121 228.108 43.9975L228.029 27.6309C228.013 24.3181 230.685 21.6193 233.998 21.6021L343.861 21.031C347.176 21.0137 349.876 23.6874 349.892 27.002L349.971 43.3686Z" fill="#706865"/>
<path d="M248.069 300L248 288.068L267 288L248.069 300Z" fill="#C9C9C9"/>
<path d="M350 512H473V520H350V512Z" fill="#254380"/>
<path d="M457 756.999H446V538.999H457V756.999Z" fill="#706865"/>
<path d="M283 510H369V521H283V510Z" fill="#CCBDB7"/>
<path d="M310 520H342V421H310V520Z" fill="#FFAA55"/>
<path d="M43 538.999H517V519.999H43V538.999Z" fill="#B59074"/>
<path d="M103 756.999H114V538.999H103V756.999Z" fill="#706865"/>
<path d="M195.249 485H446.751C454.591 485 461 478.575 461 470.716V301.284C461 293.356 454.591 287 446.751 287H195.249C187.34 287 181 293.356 181 301.284V470.716C181 478.575 187.34 485 195.249 485Z" fill="#2B4F96"/>
<path d="M192 454H450V298H192V454Z" fill="#F5F7FF"/>
<path d="M363.056 320H434.944C436.041 320 437 319.14 437 318.017V313.983C437 312.926 436.041 312 434.944 312H363.056C361.891 312 361 312.926 361 313.983V318.017C361 319.14 361.891 320 363.056 320Z" fill="#DFE1E8"/>
<path d="M367.853 425H430.078C433.848 425 437 421.936 437 418.124V338.808C437 335.064 433.848 332 430.078 332H367.853C364.084 332 361 335.064 361 338.808V418.124C361 421.936 364.084 425 367.853 425Z" fill="#DFE1E8"/>
<path d="M216.937 441H330.132C336.147 441 341 436.095 341 430.1V320.9C341 314.905 336.147 310 330.132 310H216.937C210.922 310 206 314.905 206 320.9V430.1C206 436.095 210.922 441 216.937 441Z" fill="#DFE1E8"/>
<path d="M477.5 415C494.316 415 508 401.316 508 384.5C508 379.939 506.979 375.65 505.209 371.769C500.375 361.285 489.754 354 477.5 354C460.616 354 447 367.684 447 384.5C447 390.287 448.566 395.665 451.357 400.295C456.735 409.145 466.403 415 477.5 415Z" fill="#36572B"/>
<path d="M508.534 412C520.399 412 530 402.399 530 390.466C530 389.78 529.977 389.117 529.931 388.477C528.903 377.504 519.713 369 508.534 369C496.67 369 487 378.601 487 390.466C487 398.01 490.909 404.662 496.738 408.502C500.099 410.697 504.145 412 508.534 412Z" fill="#45613C"/>
<path d="M477.281 386C477.281 386 475.564 400.135 475.014 419.366C474.465 438.598 489.848 438.598 489.848 438.598V509H500.561C500.561 509 500.355 437.171 505.643 431.394C511 425.618 511 398.232 511 398.232L507.978 396.465C507.978 396.465 512.511 428.88 491.702 433.637C470.894 438.394 478.723 387.359 478.723 387.359L477.281 386Z" fill="#925E2E"/>
<path d="M470.255 389.176C487.989 385.929 499.651 378.421 506 371.656C501.101 361.238 490.336 354 477.915 354C460.801 354 447 367.597 447 384.306C447 390.056 448.587 395.4 451.416 400C452.313 395.874 456.868 391.612 470.255 389.176Z" fill="#48753A"/>
<path d="M514.819 396.016C521.963 393.984 526.84 391.208 530 388.229C528.97 377.396 519.765 369 508.569 369C496.685 369 487 378.479 487 390.193C487 397.641 490.915 404.208 496.754 408C498.952 403.937 503.898 399.13 514.819 396.016Z" fill="#538742"/>
<path d="M527 476H455L458.754 490H522.496L527 476Z" fill="#877670"/>
<path d="M518 490H465L472.378 520H512.856L518 490Z" fill="#876455"/>
<path d="M511 371.392L512.873 372C512.873 372 515.855 364.167 515.994 363.087C516.202 362.006 511 371.392 511 371.392Z" fill="#538742"/>
<path d="M528 372L519 375.077C519 375.077 519.067 376 520.267 376C521.467 376 528 372 528 372Z" fill="#538742"/>
<path d="M471.196 392H469C469 392 469.452 395.453 471.196 397.619C473.005 399.786 471.196 392 471.196 392Z" fill="#538742"/>
<path d="M469.122 348.028C468.279 348.697 472.073 359 472.073 359H474C474 359 469.965 347.359 469.122 348.028Z" fill="#48753A"/>
<path d="M478.944 356.84C479.393 353.9 477 349 477 349V356.35C477 356.35 478.57 359.71 478.944 356.84Z" fill="#48753A"/>
<path d="M503 490H467L474.489 520H486.305C479.641 495.824 503 490 503 490Z" fill="#715346"/>
<path d="M474.122 520C476.974 518.747 481.551 504.621 483.74 497.314C484.536 494.74 485 493 485 493H459C461.255 509.84 466.694 520 466.694 520H474.122Z" fill="#9E633A"/>
<path d="M476.257 485.566C476.257 484.588 480.256 480.47 482.287 477.748C484.255 475.095 481.525 470 481.525 470C472.575 474.048 474.098 485.566 474.098 485.566C474.098 485.566 476.257 486.543 476.257 485.566Z" fill="#97A43C"/>
<path d="M470.818 486H471.971C471.971 486 472.786 466.568 465.729 463.909C458.672 461.25 458.672 456 458.672 456C458.672 456 456.501 463.295 459.962 467.045C463.422 470.864 467.357 475.295 466.747 478.977C466.068 482.591 470.818 486 470.818 486Z" fill="#97A43C"/>
<path d="M483.74 497.314C484.536 494.74 485 493 485 493H459C461.255 509.84 466.694 520 466.694 520H468.418C468.087 504.204 477.969 498.985 483.74 497.314Z" fill="#82522F"/>
<path d="M484.931 485H458.537L457 493H486L484.931 485Z" fill="#C67B47"/>
<path d="M5.62714 335.239C4.20218 333.037 4.92601 330.09 7.20893 328.798V328.798C8.3829 328.134 9.79081 328.024 11.0536 328.498L62.4821 347.799C66.5471 349.325 71.0061 346.82 71.8182 342.555L82.1855 288.103C82.4186 286.878 83.1787 285.818 84.2638 285.204V285.204C86.3807 284.007 89.0691 284.831 90.1514 287.009L138.078 383.467C139.398 386.124 138.9 389.325 136.834 391.455L110.79 418.312C109.848 419.284 108.644 419.961 107.324 420.263L71.4317 428.463C68.5645 429.118 65.5936 427.911 63.9958 425.442L5.62714 335.239ZM68.6557 412.349C70.268 414.838 73.2738 416.041 76.158 415.352L101.244 409.355C102.507 409.053 103.66 408.406 104.577 407.486L123.366 388.619C125.478 386.499 126.008 383.271 124.686 380.586L99.6805 329.814C96.7551 323.875 87.9817 324.94 86.5633 331.408L80.0769 360.985C79.793 362.279 78.9716 363.392 77.8181 364.044V364.044C76.6504 364.705 75.2548 364.831 73.9878 364.389L46.2526 354.727C39.9575 352.534 34.4504 359.548 38.0748 365.143L68.6557 412.349Z" fill="url(#paint0_linear_11_7232)"/>
<path d="M492.56 142.785C477.848 146.471 453.132 127.043 433.761 95.6886C412.661 61.5352 407.056 28.0349 420.998 19.424C434.937 10.8007 462.384 30.8183 483.486 64.971C493.418 81.044 500.287 97.7104 502.828 111.9C505.457 126.572 503.121 136.993 496.252 141.238C495.109 141.941 493.87 142.455 492.56 142.785ZM425.461 20.9141C424.449 21.1687 423.513 21.5589 422.646 22.0951C410.62 29.5239 416.932 62.4716 436.432 94.0401C455.935 125.608 482.574 146.006 494.603 138.564C500.218 135.095 502.09 125.578 499.738 112.451C497.263 98.6418 490.544 82.3646 480.815 66.6195C462.712 37.3272 438.469 17.6543 425.461 20.9141Z" fill="#076136"/>
<path d="M436.056 144.317C431.81 145.381 427.952 145.124 424.691 143.371C417.58 139.542 414.627 129.282 416.376 114.476C418.07 100.165 423.934 83.1174 432.892 66.4783C441.847 49.8398 452.845 35.5574 463.859 26.2656C475.257 16.6515 485.445 13.4637 492.554 17.2933C499.665 21.1222 502.617 31.3793 500.868 46.185C499.177 60.496 493.313 77.543 484.355 94.1822C469.625 121.545 450.593 140.671 436.056 144.317ZM481.978 19.4094C477.241 20.5966 471.732 23.7282 465.883 28.6642C455.162 37.7092 444.426 51.6677 435.65 67.97C426.874 84.2692 421.136 100.917 419.489 114.848C417.927 128.091 420.361 137.478 426.175 140.607C438.621 147.305 464 125.368 481.588 92.6954C490.361 76.3969 496.099 59.749 497.746 45.8176C499.309 32.5748 496.874 23.1847 491.063 20.058C488.591 18.7208 485.498 18.527 481.978 19.4094Z" fill="#076136"/>
<path d="M493.607 105.04C483.308 107.62 471.649 109.176 459.491 109.539C440.604 110.102 422.735 107.718 409.179 102.826C395.157 97.7644 387.302 90.5319 387.061 82.4638C386.576 66.085 417.617 52.3101 457.75 51.1182C476.637 50.5557 494.505 52.9397 508.058 57.8318C522.083 62.8897 529.935 70.1228 530.177 78.1941C530.421 86.2647 523.008 93.9511 509.311 99.8393C504.597 101.867 499.312 103.61 493.607 105.04ZM424.557 58.6841C403.966 63.8418 389.914 72.8169 390.199 82.3671C390.395 88.9662 397.704 95.344 410.245 99.8704C423.439 104.632 440.898 106.95 459.404 106.399C477.906 105.849 495.191 102.491 508.078 96.9548C520.327 91.6891 527.24 84.8855 527.044 78.2895C526.848 71.6905 519.539 65.3096 506.998 60.7832C493.807 56.021 476.348 53.7031 457.846 54.2534C445.822 54.6152 434.436 56.2103 424.557 58.6841Z" fill="#076136"/>
<path d="M469.556 73.5732C473.288 79.6099 471.417 87.53 465.377 91.2624C459.34 94.9912 451.42 93.1233 447.688 87.0836C443.956 81.0469 445.827 73.1268 451.867 69.3944C457.907 65.665 465.824 67.5366 469.556 73.5732Z" fill="#076136"/>
<path d="M345.382 266.651C345.64 258.125 347.138 249.648 346.967 241.119C346.796 232.59 344.714 223.671 338.879 217.448C333.043 211.226 322.759 208.704 315.711 213.511L314.152 220.743C316.291 253.679 315.308 287.093 317.447 320.029C317.728 324.355 321.163 328.331 323.058 332.231C324.951 336.131 328.837 339.392 333.167 339.206C338.835 338.961 342.656 333.29 344.514 327.931C351.251 308.501 344.761 287.206 345.382 266.651Z" fill="#263238"/>
<path d="M325.678 222.057C324.477 219.926 323.242 217.763 321.449 216.1C319.655 214.438 317.186 213.322 314.776 213.736C313.641 213.929 312.478 214.552 312.08 215.631C311.679 216.711 312.466 218.176 313.615 218.102L313.855 218.315C316.367 220.62 318.926 222.877 321.528 225.08C322.183 225.635 322.863 226.199 323.679 226.465C324.496 226.732 325.491 226.633 326.073 226.002C327.032 224.959 326.374 223.293 325.678 222.057Z" fill="#FF725E"/>
<path d="M330.343 230.516C322.033 219.972 310.727 213.784 297.31 213.317C289.741 213.054 286.578 214.57 281.098 215.942C275.618 217.314 270.645 220.148 267.308 224.707C263.344 230.121 259.986 236.202 259.134 242.857C258.259 249.693 258.659 256.405 259.862 261.951C261.321 268.688 265.737 279.025 269.681 284.676L281.277 286.3C290.927 286.805 300.711 287.301 310.159 285.269C319.607 283.238 328.838 278.342 334.026 270.19C341.237 258.865 338.654 241.06 330.343 230.516Z" fill="#263238"/>
<path d="M314.789 230.118L291.649 220.428L285.547 221.025C271.846 220.823 262.12 235.761 261.828 246.857C261.504 259.183 261.594 274.245 263.386 283.369C266.992 301.713 282.558 303.517 282.558 303.517C282.558 303.517 281.752 320.019 281.523 326.152L318.019 323.541L320.835 236.487C320.779 233.117 318.153 230.349 314.789 230.118Z" fill="#FFBF9D"/>
<path d="M290.872 279.59C290.762 278.625 290.244 277.763 289.571 277.165C288.227 275.971 286.233 275.821 284.754 276.802C283.274 277.784 282.401 279.837 282.641 281.764C283.44 282.907 284.682 283.69 286.068 283.837C286.285 283.86 286.501 283.871 286.719 283.869C287.773 283.861 288.851 283.524 289.67 282.763C290.486 282.002 291.008 280.783 290.872 279.59Z" fill="#FF9A6C"/>
<path d="M268.939 263.476C268.94 264.727 270.001 265.758 271.308 265.779C272.613 265.802 273.672 264.807 273.67 263.556C273.668 262.305 272.608 261.274 271.304 261.251C269.996 261.229 268.937 262.225 268.939 263.476Z" fill="#263238"/>
<path d="M265.893 253.096C266.198 253.395 267.941 252.002 270.488 251.914C273.031 251.792 274.947 253.033 275.212 252.71C275.342 252.567 275.023 252.021 274.188 251.459C273.365 250.899 271.978 250.376 270.392 250.439C268.806 250.507 267.492 251.14 266.748 251.764C265.988 252.395 265.743 252.962 265.893 253.096Z" fill="#263238"/>
<path d="M281.877 273.345C281.883 273.2 280.29 272.985 277.714 272.751C277.061 272.707 276.442 272.601 276.314 272.162C276.143 271.697 276.39 270.986 276.677 270.218C277.231 268.622 277.81 266.949 278.419 265.196C280.831 258.05 282.551 252.181 282.264 252.087C281.975 251.992 279.785 257.71 277.373 264.856C276.793 266.618 276.24 268.297 275.714 269.903C275.494 270.652 275.102 271.505 275.47 272.468C275.663 272.948 276.153 273.283 276.574 273.38C276.995 273.492 277.362 273.485 277.684 273.493C280.27 273.537 281.872 273.49 281.877 273.345Z" fill="#263238"/>
<path d="M282.53 303.496C282.53 303.496 294.972 303.842 307 296C307 296 300.885 309.03 282.354 307.981L282.53 303.496Z" fill="#FF9A6C"/>
<path d="M289.434 274.832C289.019 274.822 289.116 277.587 286.821 279.635C284.532 281.69 281.575 281.489 281.566 281.874C281.534 282.049 282.243 282.388 283.487 282.376C284.709 282.373 286.475 281.916 287.88 280.664C289.279 279.408 289.841 277.781 289.894 276.643C289.956 275.482 289.623 274.809 289.434 274.832Z" fill="#263238"/>
<path d="M266.921 244.202C267.371 244.807 269.307 244.321 271.591 244.426C273.88 244.458 275.786 245.062 276.266 244.484C276.479 244.202 276.207 243.606 275.396 243.009C274.595 242.415 273.229 241.887 271.657 241.838C270.086 241.793 268.695 242.235 267.867 242.781C267.024 243.328 266.724 243.908 266.921 244.202Z" fill="#263238"/>
<path d="M297.788 262.313C297.831 263.564 296.808 264.631 295.502 264.701C294.199 264.77 293.106 263.814 293.063 262.563C293.019 261.312 294.044 260.244 295.345 260.174C296.65 260.106 297.744 261.064 297.788 262.313Z" fill="#263238"/>
<path d="M300.336 252.739C300.043 253.048 298.249 251.719 295.702 251.724C293.157 251.692 291.286 253.002 291.01 252.689C290.874 252.55 291.174 251.993 291.988 251.401C292.79 250.812 294.157 250.239 295.744 250.247C297.331 250.257 298.666 250.843 299.433 251.441C300.215 252.042 300.482 252.6 300.336 252.739Z" fill="#263238"/>
<path d="M298.955 244.56C298.453 245.138 296.487 244.536 294.124 244.505C291.761 244.402 289.757 244.891 289.297 244.284C289.096 243.99 289.412 243.411 290.287 242.864C291.149 242.318 292.59 241.874 294.216 241.919C295.84 241.968 297.247 242.492 298.069 243.086C298.904 243.682 299.178 244.279 298.955 244.56Z" fill="#263238"/>
<path d="M317.105 267.406C317.058 266.032 318.527 262.735 319.876 262.473C323.479 261.776 330.022 261.827 330.42 271.028C330.963 283.606 318.224 281.558 318.186 281.198C318.157 280.915 317.268 272.15 317.105 267.406Z" fill="#FFBF9D"/>
<path d="M321.458 276.452C321.512 276.41 321.684 276.596 322.062 276.749C322.43 276.897 323.057 276.986 323.702 276.712C325.01 276.166 326.038 274.01 325.999 271.74C325.981 270.594 325.696 269.514 325.25 268.63C324.826 267.726 324.204 267.109 323.529 267.02C322.858 266.894 322.401 267.316 322.262 267.676C322.109 268.035 322.199 268.282 322.135 268.307C322.101 268.341 321.856 268.108 321.935 267.585C321.977 267.333 322.111 267.03 322.396 266.775C322.687 266.517 323.126 266.373 323.594 266.402C324.567 266.428 325.478 267.282 325.967 268.253C326.508 269.227 326.858 270.439 326.877 271.726C326.906 274.263 325.712 276.691 323.915 277.296C323.04 277.564 322.291 277.33 321.897 277.049C321.494 276.755 321.415 276.476 321.458 276.452Z" fill="#FF9A6C"/>
<path d="M320.39 262.518L317.137 265.771C303.594 252.326 277.258 218.799 278.725 220.794C278.725 220.794 288.239 217.083 298.457 219.015C308.675 220.948 328.021 226.433 327.503 238.517C326.984 250.599 320.39 262.518 320.39 262.518Z" fill="#263238"/>
<path d="M338.695 260.076C338.716 260.07 338.654 259.82 338.515 259.347C338.373 258.875 338.117 258.191 337.695 257.35C336.851 255.679 335.222 253.411 332.553 251.347C329.925 249.229 326.259 247.473 322.075 246.068C317.897 244.622 313.179 243.474 308.565 241.392C303.92 239.386 299.792 236.83 296.28 234.214C292.78 231.571 289.9 228.843 287.658 226.396C285.416 223.946 283.794 221.796 282.701 220.291C282.201 219.576 281.792 218.995 281.473 218.536C281.189 218.138 281.029 217.933 281.011 217.944C280.992 217.955 281.114 218.183 281.363 218.606C281.618 219.026 281.978 219.657 282.494 220.433C283.528 221.988 285.105 224.193 287.319 226.7C289.534 229.205 292.406 231.991 295.92 234.687C299.445 237.355 303.608 239.952 308.306 241.981C312.98 244.088 317.731 245.226 321.883 246.63C326.051 247.994 329.658 249.674 332.273 251.707C334.927 253.687 336.574 255.862 337.473 257.468C338.365 259.09 338.628 260.101 338.695 260.076Z" fill="#455A64"/>
<path d="M335.002 261.989C335.002 261.989 335.147 260.962 334.564 259.235C334.009 257.521 332.564 255.179 329.951 253.234C327.363 251.227 323.641 249.947 319.542 248.933C315.426 247.945 310.963 246.698 306.59 244.562C302.225 242.443 298.319 239.9 295.106 237.18C291.876 234.48 289.281 231.692 287.287 229.209C285.266 226.74 283.923 224.528 282.96 223.027C282.54 222.304 282.198 221.716 281.927 221.248C281.684 220.845 281.547 220.636 281.528 220.646C281.508 220.656 281.605 220.883 281.812 221.308C282.057 221.792 282.364 222.402 282.743 223.151C283.646 224.698 284.94 226.964 286.931 229.49C288.895 232.029 291.481 234.88 294.726 237.634C297.951 240.407 301.894 242.996 306.312 245.142C310.729 247.301 315.292 248.557 319.399 249.508C323.492 250.488 327.137 251.698 329.681 253.6C332.259 255.447 333.717 257.676 334.328 259.321C334.969 260.975 334.916 262 335.002 261.989Z" fill="#455A64"/>
<path d="M319.587 283.78C319.576 283.695 320.656 283.575 322.525 283.123C324.383 282.642 327.023 281.558 329.628 279.322C332.262 277.12 334.633 273.661 336.341 269.448C338.041 265.23 339.108 260.258 339.329 255.004C339.431 252.379 339.274 249.814 338.861 247.374C338.416 244.939 337.731 242.644 336.901 240.528C335.182 236.308 332.856 232.862 330.579 230.274C325.996 225.075 322.136 222.943 322.28 222.77C322.296 222.746 322.532 222.875 322.969 223.144C323.399 223.425 324.064 223.798 324.845 224.383C326.44 225.508 328.654 227.296 331.018 229.887C333.386 232.463 335.812 235.943 337.61 240.24C338.479 242.397 339.194 244.742 339.662 247.233C340.098 249.729 340.262 252.362 340.159 255.039C339.933 260.387 338.824 265.445 337.048 269.74C335.266 274.031 332.774 277.558 330.007 279.771C327.271 282.021 324.516 283.046 322.603 283.438C321.654 283.684 320.877 283.675 320.372 283.751C319.857 283.798 319.589 283.809 319.587 283.78Z" fill="#455A64"/>
<path d="M370.409 442.216H262.993C254.21 442.216 247.092 435.097 247.092 426.315V348.818C247.092 340.035 254.212 332.917 262.993 332.917H370.409C379.192 332.917 386.31 340.037 386.31 348.818V426.315C386.31 435.096 379.192 442.216 370.409 442.216Z" fill="#455A64"/>
<path d="M245.888 330.472C245.888 330.472 243.935 326.344 250.408 322.326C256.881 318.309 282.093 313.232 282.093 313.232C282.093 313.232 283.105 322.48 301.331 321.087C315.573 319.999 317.859 310.196 317.859 310.196L353.917 315.067C353.917 315.067 357.626 355.224 352.506 391.492C351.189 400.819 347.279 444.341 347.279 444.341L355.681 452.991L243.133 457.054L252.25 444.715L250.921 374.664L245.888 330.472Z" fill="#FF725E"/>
<path d="M347.279 314.302C347.279 314.302 358.768 314.118 366.693 321.137C374.617 328.155 387.137 356.034 387.137 356.034L352.37 375.977L347.279 314.302Z" fill="#FF725E"/>
<path d="M222.133 354.484L257.796 379.485L252.246 321.997C252.246 321.997 243.218 319.676 222.133 354.484Z" fill="#FF725E"/>
<path d="M356.323 338.643C356.381 338.647 356.391 339.22 356.36 340.254C356.302 341.476 356.235 342.93 356.154 344.622C355.921 348.525 355.624 353.503 355.295 359.007C354.977 364.626 354.764 369.714 354.646 373.398C354.524 377.083 354.469 379.366 354.346 379.367C354.288 379.367 354.228 378.798 354.17 377.766C354.109 376.733 354.068 375.238 354.052 373.392C354.018 369.697 354.138 364.589 354.457 358.961C354.777 353.333 355.205 348.25 355.563 344.576C355.742 342.739 355.905 341.254 356.036 340.229C356.165 339.203 356.265 338.638 356.323 338.643Z" fill="#263238"/>
<path d="M246.445 343.858C246.675 343.829 247.863 351.639 249.1 361.301C250.336 370.967 251.152 378.823 250.921 378.853C250.69 378.882 249.502 371.074 248.265 361.408C247.031 351.745 246.215 343.887 246.445 343.858Z" fill="#263238"/>
<path d="M297.436 507.388C297.436 507.388 290.903 528.11 292.253 549.784C293.602 571.458 295.454 671.906 294.753 673.574C294.053 675.241 329.575 680.242 329.575 680.242C329.575 680.242 338.567 629.809 340.367 616.888C342.165 603.968 346.212 601.049 345.764 566.039C345.313 531.028 355.228 538.354 362.412 526.77C369.597 515.188 372.295 504.352 368.248 484.346C364.201 464.339 346.372 446.07 346.372 446.07L308.442 461.422L294.43 500.835L297.436 507.388Z" fill="#263238"/>
<path d="M367.391 546.843L386.717 581.482L410.525 604.794C412.24 606.475 412.063 609.151 410.137 610.623C409.059 611.448 407.63 611.74 406.281 611.401C397.695 609.246 366.538 600.638 365.333 598.875C363.424 596.078 341.889 563.283 341.889 563.283L367.391 546.843Z" fill="#263238"/>
<path d="M410.136 610.622L363.526 596.257L364.381 597.706C365.388 599.112 366.309 599.934 367.748 600.444C371.598 601.81 382.317 605.367 406.168 611.458C407.558 611.813 409.051 611.498 410.136 610.622Z" fill="#455A64"/>
<path d="M392.883 599.945C393.148 599.934 392.924 597.721 394.551 595.644C396.11 593.523 398.435 592.972 398.357 592.736C398.339 592.636 397.715 592.607 396.785 592.932C395.86 593.248 394.677 593.994 393.795 595.15C392.919 596.309 392.561 597.592 392.551 598.506C392.535 599.429 392.775 599.963 392.883 599.945Z" fill="white"/>
<path d="M398.215 603.197C398.478 603.255 399.008 601.542 400.617 600.068C402.193 598.561 404.035 598.055 403.968 597.812C403.972 597.582 401.767 597.757 399.96 599.466C398.136 601.156 397.968 603.201 398.215 603.197Z" fill="white"/>
<path d="M384.527 596.551C384.795 596.625 385.593 593.987 387.882 591.492C390.129 588.962 392.788 587.766 392.661 587.536C392.612 587.322 389.59 588.238 387.174 590.943C384.728 593.626 384.292 596.546 384.527 596.551Z" fill="white"/>
<path d="M377.703 586.477C377.923 586.632 379.497 584.809 382.099 583.376C384.68 581.91 387.153 581.468 387.106 581.216C387.109 580.996 384.397 581.072 381.619 582.643C378.828 584.189 377.492 586.377 377.703 586.477Z" fill="white"/>
<path d="M250.281 453.471C250.281 453.471 289.372 440.27 302.16 440.27C314.95 440.27 322.288 441.839 330.446 458.228C340.042 477.508 383.955 569.516 383.87 568.693L352.607 585.816C352.607 585.816 312.819 531.154 304.293 517.982C295.766 504.81 295.766 504.81 295.766 504.81C295.766 504.81 300.488 519.839 291.251 526.425C282.015 533.011 247.603 529.606 237.657 519.727C227.71 509.848 226.136 500.2 229.689 483.735C233.242 467.271 250.281 453.471 250.281 453.471Z" fill="#263238"/>
<path d="M291.098 469.938C291.229 470.026 289.157 471.251 288.006 474.455C287.434 476.03 287.165 478.022 287.389 480.221C287.591 482.421 288.245 484.799 289.015 487.275C290.548 492.231 292.404 496.581 293.865 499.677C294.564 501.11 295.158 502.329 295.646 503.328C296.075 504.187 296.299 504.671 296.253 504.694C296.209 504.715 295.898 504.276 295.387 503.451C294.879 502.626 294.18 501.412 293.384 499.88C291.793 496.82 289.843 492.461 288.296 487.466C287.523 484.976 286.873 482.549 286.703 480.271C286.508 477.998 286.845 475.909 287.507 474.29C288.159 472.663 289.086 471.514 289.823 470.841C290.566 470.163 291.076 469.908 291.098 469.938Z" fill="#455A64"/>
<path d="M331.358 639.64L329.229 683.911L338.436 719.377C339.1 721.932 337.29 724.476 334.493 724.915C332.927 725.161 331.34 724.699 330.218 723.658C323.075 717.028 297.642 692.187 297.534 689.818C297.361 686.06 296.186 642.446 296.186 642.446L331.358 639.64Z" fill="#263238"/>
<path d="M334.494 724.915L297.355 686.292L297.311 688.169C297.445 690.083 297.849 691.376 298.956 692.634C301.915 696.001 310.301 705.132 330.076 723.655C331.225 724.732 332.89 725.207 334.494 724.915Z" fill="#455A64"/>
<path d="M324.023 705.339C324.289 705.466 325.423 703.167 328.294 701.976C331.127 700.706 333.753 701.384 333.82 701.111C333.863 701.003 333.266 700.648 332.152 700.478C331.046 700.304 329.426 700.417 327.852 701.095C326.28 701.776 325.143 702.853 324.573 703.747C323.994 704.646 323.905 705.3 324.023 705.339Z" fill="white"/>
<path d="M327.288 711.338C327.511 711.534 329.079 710.124 331.568 709.517C334.041 708.858 336.165 709.328 336.249 709.053C336.392 708.831 334.113 707.843 331.288 708.579C328.455 709.286 327.041 711.213 327.288 711.338Z" fill="white"/>
<path d="M317.863 697.606C318.083 697.821 320.482 695.641 324.26 694.384C328.018 693.072 331.369 693.29 331.386 692.994C331.468 692.758 327.933 692.072 323.897 693.47C319.85 694.829 317.636 697.477 317.863 697.606Z" fill="white"/>
<path d="M317.296 684.099C317.417 684.367 320.082 683.397 323.521 683.352C326.959 683.263 329.664 684.126 329.774 683.852C329.911 683.637 327.193 682.289 323.498 682.378C319.803 682.435 317.151 683.889 317.296 684.099Z" fill="white"/>
<path d="M352.607 585.814C352.583 585.83 352.304 585.481 351.792 584.8C351.242 584.051 350.509 583.05 349.589 581.798C347.655 579.099 344.943 575.312 341.613 570.665C334.901 561.155 325.713 548.135 315.562 533.751C308.144 523.136 301.242 513.259 295.479 505.012L296.112 504.744C297.746 513.37 295.962 521.081 292.595 524.999C290.976 526.999 289.101 527.97 287.802 528.329C287.164 528.576 286.632 528.579 286.288 528.639C285.941 528.681 285.763 528.694 285.762 528.676C285.747 528.598 286.483 528.571 287.734 528.127C288.982 527.712 290.756 526.718 292.278 524.744C295.447 520.882 297.098 513.333 295.421 504.878L295.1 503.255L296.054 504.61C301.849 512.836 308.79 522.684 316.249 533.27C326.322 547.709 335.44 560.779 342.101 570.324C345.339 575.036 347.976 578.874 349.857 581.61C350.724 582.902 351.413 583.932 351.931 584.703C352.398 585.415 352.632 585.798 352.607 585.814Z" fill="#455A64"/>
<path d="M378.556 556.855C378.348 556.957 366.714 533.54 352.577 504.557C338.435 475.564 327.143 451.985 327.352 451.884C327.56 451.782 339.19 475.194 353.332 504.187C367.471 533.17 378.764 556.754 378.556 556.855Z" fill="#455A64"/>
<path d="M224.146 355.791C224.146 355.791 194.982 397.248 195 411.117C195.01 418.943 199.836 427.011 207.639 428.63C215.952 430.355 234.285 432.326 234.285 432.326L237.525 409.695L227.282 405.695L250.924 374.667L224.146 355.791Z" fill="#FFBF9D"/>
<path d="M253.057 416.004C253.055 416.07 264.856 432.267 264.856 432.267L268.411 433.563L267.807 430.068L257.097 413.132L253.057 416.004Z" fill="#263238"/>
<path d="M265.074 428.517C265.074 428.517 265.074 425.984 265.797 425.261C266.521 424.538 268.872 421.463 268.33 419.835C267.788 418.208 263.989 416.941 262.905 415.133C261.82 413.325 262.905 411.335 259.468 409.527C256.031 407.719 243.552 404.951 240.839 405.882C238.125 406.814 236.667 411.929 236.667 411.929C236.667 411.929 232.157 412.421 232.7 419.293L232.655 421.101C232.655 421.101 231.525 426.526 232.655 428.517C232.655 428.517 231.253 432.496 234.508 434.667C237.763 436.836 249.052 435.028 250.28 434.667C250.28 434.667 253.374 435.39 254.974 433.944C256.574 432.497 255.849 429.603 255.849 429.603C255.849 429.603 258.563 429.603 259.466 428.157C260.37 426.71 260.37 426.71 260.37 426.71C260.37 426.71 262.359 429.785 263.807 429.785C265.255 429.782 265.074 428.517 265.074 428.517Z" fill="#FFBF9D"/>
<path d="M230.718 383.137L251.646 411.022L258.8 416.005L257.124 412.464L234.18 380.594C233.449 379.579 232.009 379.401 231.052 380.207C230.18 380.938 230.035 382.225 230.718 383.137Z" fill="#263238"/>
<path d="M248.697 409.02C248.724 408.972 249.204 409.175 250.037 409.61C250.868 410.045 252.054 410.711 253.462 411.637C254.862 412.572 256.505 413.752 258.084 415.366C258.852 416.181 259.672 417.074 260.208 418.263C260.469 418.851 260.653 419.547 260.535 420.284C260.424 421.022 259.922 421.706 259.268 422.062C257.94 422.819 256.426 422.459 255.314 422.016C254.172 421.56 253.115 421.067 252.121 420.551C250.135 419.522 248.455 418.404 247.109 417.39C245.764 416.37 244.755 415.45 244.088 414.786C243.42 414.123 243.096 413.715 243.133 413.676C243.228 413.574 244.726 415.012 247.456 416.907C248.826 417.844 250.505 418.89 252.471 419.86C253.449 420.344 254.506 420.819 255.604 421.245C256.676 421.661 257.885 421.889 258.849 421.332C259.841 420.812 259.935 419.59 259.452 418.591C259.008 417.569 258.251 416.696 257.522 415.899C256.035 414.317 254.46 413.106 253.123 412.123C250.422 410.184 248.628 409.138 248.697 409.02Z" fill="#FF9A6C"/>
<path d="M255.567 429.95C255.534 430.163 252.133 429.709 248.267 428.061C244.392 426.433 241.698 424.308 241.828 424.137C241.967 423.931 244.811 425.7 248.595 427.288C252.367 428.897 255.618 429.706 255.567 429.95Z" fill="#FF9A6C"/>
<path d="M248.186 434.751C248.096 434.965 246.127 434.341 243.786 433.358C241.447 432.368 239.621 431.424 239.705 431.203C239.788 430.99 241.775 431.593 244.112 432.581C246.451 433.566 248.275 434.538 248.186 434.751Z" fill="#FF9A6C"/>
<path d="M261.799 418.755C261.957 418.937 260.509 420.112 260.028 422.17C259.528 424.225 260.29 425.926 260.067 426.018C259.972 426.069 259.639 425.712 259.366 424.984C259.094 424.265 258.929 423.153 259.21 421.977C259.491 420.8 260.14 419.881 260.706 419.363C261.279 418.835 261.738 418.666 261.799 418.755Z" fill="#FF9A6C"/>
<path d="M264.257 418.748C264.217 418.982 263.586 419.063 262.863 419.218C262.138 419.36 261.525 419.532 261.395 419.334C261.265 419.148 261.796 418.577 262.693 418.394C263.591 418.209 264.304 418.525 264.257 418.748Z" fill="#FF9A6C"/>
<path d="M260.036 413.551C260.146 413.763 259.612 414.262 259.35 415.061C259.057 415.849 259.162 416.572 258.945 416.669C258.75 416.799 258.161 415.907 258.556 414.783C258.949 413.658 259.965 413.327 260.036 413.551Z" fill="#FF9A6C"/>
<path d="M232.792 432.347C232.766 432.379 232.367 432.069 232.17 431.238C231.993 430.462 232.072 428.991 233.409 428.015L233.362 428.497C232.427 427.638 231.668 426.245 231.541 424.605C231.4 422.991 231.877 421.085 233.252 419.714L233.142 420.131C233.112 420.024 233.079 419.908 233.045 419.792C232.498 417.893 232.116 415.769 233.016 414.029C233.88 412.371 235.791 411.488 237.179 412.081L236.787 412.358C236.818 411.062 237.233 410.084 237.586 409.485C237.949 408.883 238.243 408.626 238.282 408.657C238.435 408.717 237.325 409.964 237.37 412.35L237.378 412.776L236.978 412.628C235.915 412.232 234.395 412.981 233.701 414.383C233.002 415.793 233.307 417.7 233.854 419.563C233.886 419.677 233.919 419.792 233.949 419.897L234.017 420.137L233.838 420.315C232.679 421.462 232.225 423.115 232.316 424.55C232.393 426.005 233.013 427.248 233.79 428.052L234.061 428.333L233.741 428.536C232.656 429.227 232.435 430.478 232.509 431.185C232.584 431.937 232.86 432.307 232.792 432.347Z" fill="#FF9A6C"/>
<path d="M212.414 406.891C212.366 406.799 213.066 406.284 214.324 405.65C215.57 405.032 217.46 404.291 219.67 404.242C221.869 404.207 223.762 404.681 225.113 404.987C226.466 405.317 227.287 405.581 227.267 405.695C227.246 405.81 226.382 405.752 225.005 405.571C223.63 405.413 221.739 405.046 219.691 405.083C217.641 405.127 215.846 405.727 214.559 406.196C213.271 406.677 212.472 407.004 212.414 406.891Z" fill="#FF9A6C"/>
<path d="M384.252 357.689C384.909 360.957 402.554 412.533 402.974 416.668C403.393 420.804 400.656 432.388 392.017 433.316C383.997 434.178 320.724 435.322 320.724 435.322L320.982 421.829L371.684 409.574L356.325 373.71L384.252 357.689Z" fill="#FFBF9D"/>
<path d="M384.217 417.059C384.002 417.21 382.377 413.817 378.506 411.708C374.679 409.52 370.937 409.92 370.953 409.658C370.939 409.565 371.839 409.313 373.337 409.365C374.827 409.408 376.905 409.859 378.916 410.976C380.922 412.101 382.396 413.632 383.216 414.877C384.046 416.125 384.304 417.022 384.217 417.059Z" fill="#FF9A6C"/>
<path d="M284.893 433.978C283.165 433.776 282.278 431.8 283.279 430.376C285.521 427.185 289.342 421.841 290.14 421.309C291.282 420.548 300.685 417.624 301.575 417.371C302.464 417.117 317.341 420.404 322.041 421.04L331.366 419.758L332.194 431.728C332.194 431.728 321.395 434.015 318.981 433.251C316.566 432.489 315.169 430.838 315.169 430.838L308.435 429.568L300.43 431.474C300.43 431.474 294.077 434.015 292.934 434.142C291.791 434.27 290.901 433.506 290.901 433.506C290.901 433.506 287.749 434.31 284.893 433.978Z" fill="#FFBF9D"/>
<path d="M201 495.082H26.1843V519.474H201V495.082Z" fill="#FF725E"/>
<path d="M198.15 498.13H26.1843V516.332H198.15V498.13Z" fill="#F5F5F5"/>
<path d="M198.15 502.109C198.15 502.109 197.999 502.117 197.705 502.122C197.406 502.125 196.971 502.129 196.401 502.135C195.249 502.14 193.56 502.149 191.385 502.159C187.025 502.168 180.724 502.182 172.938 502.2C157.359 502.209 135.843 502.222 112.079 502.237C88.3069 502.222 66.789 502.209 51.2091 502.2C43.4239 502.182 37.1232 502.168 32.7634 502.159C30.5896 502.148 28.8999 502.14 27.7485 502.135C27.1788 502.129 26.7433 502.125 26.4441 502.122C26.1503 502.117 26 502.109 26 502.109C26 502.109 26.1503 502.1 26.4441 502.095C26.7427 502.093 27.1788 502.088 27.7485 502.083C28.8999 502.077 30.5896 502.069 32.7634 502.059C37.1232 502.049 43.4239 502.035 51.2091 502.018C66.789 502.009 88.3069 501.995 112.079 501.98C135.842 501.995 157.358 502.009 172.938 502.018C180.724 502.035 187.024 502.049 191.385 502.059C193.56 502.069 195.25 502.077 196.401 502.083C196.971 502.088 197.407 502.093 197.705 502.095C197.999 502.1 198.15 502.109 198.15 502.109Z" fill="#263238"/>
<path d="M198.15 506.975C198.15 506.975 197.999 506.984 197.705 506.989C197.406 506.991 196.971 506.996 196.401 507.001C195.249 507.007 193.56 507.015 191.385 507.025C187.025 507.035 180.724 507.049 172.938 507.066C157.359 507.076 135.843 507.089 112.079 507.104C88.3069 507.089 66.789 507.076 51.2091 507.066C43.4239 507.049 37.1232 507.035 32.7634 507.025C30.5896 507.015 28.8999 507.007 27.7485 507.001C27.1788 506.996 26.7433 506.991 26.4441 506.989C26.1503 506.984 26 506.975 26 506.975C26 506.975 26.1503 506.967 26.4441 506.962C26.7427 506.959 27.1788 506.955 27.7485 506.949C28.8999 506.944 30.5896 506.936 32.7634 506.925C37.1232 506.916 43.4239 506.902 51.2091 506.885C66.789 506.875 88.3069 506.862 112.079 506.847C135.842 506.862 157.358 506.875 172.938 506.885C180.724 506.902 187.024 506.916 191.385 506.925C193.56 506.936 195.25 506.944 196.401 506.949C196.971 506.955 197.407 506.959 197.705 506.962C197.999 506.966 198.15 506.975 198.15 506.975Z" fill="#263238"/>
<path d="M198.15 511.842C198.15 511.842 197.999 511.85 197.705 511.855C197.406 511.858 196.971 511.862 196.401 511.868C195.249 511.873 193.56 511.882 191.385 511.892C187.025 511.902 180.724 511.915 172.938 511.932C157.359 511.942 135.843 511.955 112.079 511.97C88.3069 511.955 66.789 511.942 51.2091 511.932C43.4239 511.915 37.1232 511.901 32.7634 511.892C30.5896 511.881 28.8999 511.873 27.7485 511.868C27.1788 511.862 26.7433 511.858 26.4441 511.855C26.1503 511.85 26 511.842 26 511.842C26 511.842 26.1503 511.833 26.4441 511.828C26.7427 511.826 27.1788 511.821 27.7485 511.816C28.8999 511.81 30.5896 511.802 32.7634 511.792C37.1232 511.782 43.4239 511.768 51.2091 511.751C66.789 511.741 88.3069 511.728 112.079 511.713C135.842 511.728 157.358 511.741 172.938 511.751C180.724 511.768 187.024 511.782 191.385 511.792C193.56 511.802 195.25 511.81 196.401 511.816C196.971 511.821 197.407 511.826 197.705 511.828C197.999 511.833 198.15 511.842 198.15 511.842Z" fill="#263238"/>
<path d="M190.858 446H49.4426V463.661H190.858V446Z" fill="#FF725E"/>
<path d="M159.636 460.177C159.631 460.172 159.627 460.103 159.622 459.973C159.618 459.823 159.613 459.637 159.608 459.41C159.6 458.895 159.589 458.192 159.576 457.319C159.562 455.517 159.542 453.015 159.518 450.077L159.636 450.195C157.588 450.198 155.323 450.201 152.941 450.205C152.911 450.233 153.183 449.963 153.068 450.079V450.082V450.087V450.098V450.12V450.165V450.254V450.432V450.786C153.068 451.022 153.068 451.256 153.068 451.49C153.067 451.956 153.067 452.417 153.067 452.871C153.065 453.779 153.063 454.662 153.061 455.513C153.055 457.212 153.048 458.783 153.042 460.176L152.94 460.074C154.947 460.096 156.602 460.115 157.788 460.128C158.352 460.139 158.804 460.148 159.144 460.154C159.458 460.162 159.629 460.17 159.636 460.177C159.643 460.184 159.487 460.192 159.184 460.2C158.851 460.206 158.406 460.215 157.851 460.226C156.65 460.239 154.974 460.257 152.94 460.28L152.838 460.281L152.837 460.178C152.831 458.784 152.825 457.213 152.818 455.515C152.816 454.663 152.814 453.78 152.812 452.872C152.812 452.418 152.812 451.957 152.811 451.491C152.811 451.258 152.811 451.023 152.81 450.788V450.433V450.255V450.166V450.122V450.1V450.088V450.083V450.08C152.695 450.195 152.966 449.921 152.939 449.95C155.321 449.954 157.586 449.957 159.635 449.961H159.753L159.753 450.078C159.729 453.048 159.709 455.576 159.695 457.397C159.681 458.26 159.671 458.954 159.663 459.462C159.657 459.68 159.653 459.858 159.649 460.001C159.645 460.121 159.641 460.182 159.636 460.177Z" fill="#263238"/>
<path d="M190.859 448.763H169.046V460.705H190.859V448.763Z" fill="white"/>
<path opacity="0.3" d="M190.858 446H166.174V463.661H190.858V446Z" fill="black"/>
<path d="M166.067 463.556C165.996 463.556 165.938 459.658 165.938 454.851C165.938 450.042 165.996 446.145 166.067 446.145C166.138 446.145 166.195 450.042 166.195 454.851C166.195 459.657 166.138 463.556 166.067 463.556Z" fill="#263238"/>
<path d="M191.023 451.589C191.023 451.66 186.066 451.717 179.952 451.717C173.837 451.717 168.881 451.66 168.881 451.589C168.881 451.518 173.837 451.461 179.952 451.461C186.066 451.461 191.023 451.518 191.023 451.589Z" fill="#263238"/>
<path d="M191.023 454.734C191.023 454.805 186.066 454.862 179.952 454.862C173.837 454.862 168.881 454.805 168.881 454.734C168.881 454.663 173.837 454.606 179.952 454.606C186.066 454.606 191.023 454.663 191.023 454.734Z" fill="#263238"/>
<path d="M191.023 457.922C191.023 457.993 186.066 458.051 179.952 458.051C173.837 458.051 168.881 457.993 168.881 457.922C168.881 457.852 173.837 457.794 179.952 457.794C186.066 457.794 191.023 457.852 191.023 457.922Z" fill="#263238"/>
<path d="M176.898 463.848H35.4829V472.562H176.898V463.848Z" fill="#FF725E"/>
<path d="M176.898 464.939H145.284V471.536H176.898V464.939Z" fill="#E0E0E0"/>
<path opacity="0.3" d="M176.899 463.848H143.498V472.562H176.899V463.848Z" fill="black"/>
<path d="M143.498 472.561C143.427 472.561 143.374 470.683 143.381 468.368C143.388 466.052 143.45 464.174 143.521 464.174C143.591 464.174 143.644 466.052 143.637 468.368C143.631 470.684 143.569 472.561 143.498 472.561Z" fill="#263238"/>
<path d="M130.82 467.206H45.6505V469.289H130.82V467.206Z" fill="#E0E0E0"/>
<path d="M140.059 472.493C140.059 472.564 116.624 472.621 87.7212 472.621C58.8094 472.621 35.3788 472.564 35.3788 472.493C35.3788 472.422 58.8094 472.365 87.7212 472.365C116.624 472.365 140.059 472.422 140.059 472.493Z" fill="#263238"/>
<path d="M143.846 472.534C143.846 472.605 120.411 472.662 91.5092 472.662C62.5968 472.662 39.1669 472.605 39.1669 472.534C39.1669 472.463 62.5975 472.406 91.5092 472.406C120.411 472.406 143.846 472.463 143.846 472.534Z" fill="#263238"/>
<path d="M176.898 463.783C176.898 463.854 146.064 463.911 108.036 463.911C69.9948 463.911 39.1663 463.854 39.1663 463.783C39.1663 463.712 69.9948 463.655 108.036 463.655C146.064 463.655 176.898 463.712 176.898 463.783Z" fill="#263238"/>
<path d="M175.86 472.533H34.4452V495.102H175.86V472.533Z" fill="#455A64"/>
<path d="M188.174 472.663H149.689V494.971H188.174V472.663Z" fill="#455A64"/>
<path d="M188.174 475.72H153.309V491.748H188.174V475.72Z" fill="#F5F5F5"/>
<path opacity="0.3" d="M188.174 472.663H149.689V494.971H188.174V472.663Z" fill="black"/>
<path d="M139.343 490.152C139.343 490.152 139.336 489.938 139.333 489.529C139.33 489.116 139.326 488.51 139.32 487.715C139.314 486.119 139.303 483.766 139.29 480.713L139.343 480.766C122.956 480.778 86.0308 480.808 43.1327 480.841H43.128L43.2562 480.713C43.2562 483.946 43.2562 487.145 43.2555 490.151L43.128 490.023C70.1163 490.045 94.1507 490.064 111.446 490.078C120.099 490.094 127.066 490.107 131.874 490.116C134.277 490.124 136.139 490.13 137.407 490.134C138.037 490.138 138.517 490.141 138.847 490.143C139.172 490.146 139.343 490.152 139.343 490.152C139.343 490.152 139.184 490.158 138.865 490.16C138.539 490.162 138.064 490.165 137.442 490.169C136.18 490.173 134.327 490.179 131.937 490.187C127.135 490.196 120.179 490.209 111.538 490.225C94.2194 490.239 70.1524 490.258 43.1273 490.28H42.9991V490.152C42.9991 487.146 42.9984 483.947 42.9984 480.713V480.585H43.1266H43.1313C86.0295 480.619 122.956 480.648 139.342 480.661H139.394V480.713C139.381 483.78 139.371 486.143 139.364 487.745C139.359 488.536 139.355 489.137 139.352 489.548C139.35 489.951 139.343 490.152 139.343 490.152Z" fill="#263238"/>
<path d="M149.736 494.955C149.666 494.955 149.608 489.898 149.608 483.661C149.608 477.421 149.666 472.365 149.736 472.365C149.807 472.365 149.865 477.421 149.865 483.661C149.865 489.897 149.808 494.955 149.736 494.955Z" fill="#263238"/>
<path d="M320.84 434H254V435.635H320.84V434Z" fill="white"/>
<path d="M47.8 160V89.3998H63.5V160H47.8ZM91.5 160V89.3998H107.3V160H91.5ZM57.2 130.5V116.9H96.7V130.5H57.2ZM140.68 161.1C134.88 161.1 129.88 160.166 125.68 158.3C121.546 156.366 117.746 153.466 114.28 149.6L124.48 139.5C126.746 142.1 129.246 144.133 131.98 145.6C134.78 147 138.013 147.7 141.68 147.7C145.013 147.7 147.58 147.1 149.38 145.9C151.246 144.7 152.18 143.033 152.18 140.9C152.18 138.966 151.58 137.4 150.38 136.2C149.18 135 147.58 133.966 145.58 133.1C143.646 132.233 141.48 131.4 139.08 130.6C136.746 129.8 134.413 128.9 132.08 127.9C129.746 126.833 127.58 125.533 125.58 124C123.646 122.4 122.08 120.433 120.88 118.1C119.68 115.7 119.08 112.7 119.08 109.1C119.08 104.766 120.113 101.033 122.18 97.8998C124.313 94.7664 127.246 92.3998 130.98 90.7998C134.713 89.1331 139.013 88.2998 143.88 88.2998C148.813 88.2998 153.313 89.1664 157.38 90.8998C161.513 92.6331 164.913 94.9998 167.58 97.9998L157.38 108.1C155.246 105.9 153.08 104.266 150.88 103.2C148.746 102.133 146.313 101.6 143.58 101.6C140.846 101.6 138.68 102.133 137.08 103.2C135.48 104.2 134.68 105.666 134.68 107.6C134.68 109.4 135.28 110.866 136.48 112C137.68 113.066 139.246 114 141.18 114.8C143.18 115.6 145.346 116.4 147.68 117.2C150.08 118 152.446 118.933 154.78 120C157.113 121.066 159.246 122.433 161.18 124.1C163.18 125.7 164.78 127.766 165.98 130.3C167.18 132.766 167.78 135.833 167.78 139.5C167.78 146.233 165.38 151.533 160.58 155.4C155.78 159.2 149.146 161.1 140.68 161.1ZM211.866 161.1C206.6 161.1 201.7 160.2 197.166 158.4C192.7 156.533 188.766 153.933 185.366 150.6C182.033 147.266 179.433 143.4 177.566 139C175.7 134.533 174.766 129.733 174.766 124.6C174.766 119.466 175.7 114.7 177.566 110.3C179.433 105.833 182.033 101.966 185.366 98.6998C188.7 95.4331 192.6 92.8998 197.066 91.0998C201.6 89.2331 206.5 88.2998 211.766 88.2998C217.366 88.2998 222.333 89.1998 226.666 90.9998C231.066 92.7998 234.9 95.2664 238.166 98.3998L227.666 109C225.8 107 223.533 105.433 220.866 104.3C218.266 103.166 215.233 102.6 211.766 102.6C208.7 102.6 205.866 103.133 203.266 104.2C200.733 105.2 198.533 106.666 196.666 108.6C194.866 110.533 193.433 112.866 192.366 115.6C191.366 118.333 190.866 121.333 190.866 124.6C190.866 127.933 191.366 130.966 192.366 133.7C193.433 136.433 194.866 138.766 196.666 140.7C198.533 142.633 200.733 144.133 203.266 145.2C205.866 146.266 208.7 146.8 211.766 146.8C215.366 146.8 218.5 146.233 221.166 145.1C223.833 143.966 226.133 142.4 228.066 140.4L238.666 151C235.266 154.133 231.366 156.6 226.966 158.4C222.633 160.2 217.6 161.1 211.866 161.1Z" fill="#D66060"/>
<path d="M238.9 201L255.7 158.64H264.22L280.84 201H270.88L258.16 165.84H261.58L248.68 201H238.9ZM248.44 193.32V185.64H271.54V193.32H248.44ZM295.848 201.6C293.088 201.6 290.628 200.94 288.468 199.62C286.348 198.3 284.668 196.5 283.428 194.22C282.228 191.94 281.628 189.34 281.628 186.42C281.628 183.5 282.228 180.9 283.428 178.62C284.668 176.34 286.348 174.54 288.468 173.22C290.628 171.9 293.088 171.24 295.848 171.24C297.848 171.24 299.648 171.62 301.248 172.38C302.888 173.14 304.228 174.2 305.268 175.56C306.348 176.88 306.948 178.4 307.068 180.12V192.42C306.948 194.14 306.368 195.7 305.328 197.1C304.288 198.46 302.948 199.56 301.308 200.4C299.668 201.2 297.848 201.6 295.848 201.6ZM297.468 193.32C298.788 193.32 299.928 193.04 300.888 192.48C301.848 191.88 302.608 191.06 303.168 190.02C303.728 188.98 304.008 187.78 304.008 186.42C304.008 185.06 303.728 183.88 303.168 182.88C302.648 181.84 301.888 181.02 300.888 180.42C299.928 179.82 298.808 179.52 297.528 179.52C296.248 179.52 295.108 179.82 294.108 180.42C293.148 181.02 292.368 181.84 291.768 182.88C291.208 183.92 290.928 185.1 290.928 186.42C290.928 187.74 291.208 188.92 291.768 189.96C292.328 191 293.108 191.82 294.108 192.42C295.108 193.02 296.228 193.32 297.468 193.32ZM312.648 201H303.648V193.14L305.028 186.06L303.468 178.98V157.44H312.648V201ZM331.531 201.6C328.771 201.6 326.311 200.94 324.151 199.62C322.031 198.3 320.351 196.5 319.111 194.22C317.911 191.94 317.311 189.34 317.311 186.42C317.311 183.5 317.911 180.9 319.111 178.62C320.351 176.34 322.031 174.54 324.151 173.22C326.311 171.9 328.771 171.24 331.531 171.24C333.531 171.24 335.331 171.62 336.931 172.38C338.571 173.14 339.911 174.2 340.951 175.56C342.031 176.88 342.631 178.4 342.751 180.12V192.42C342.631 194.14 342.051 195.7 341.011 197.1C339.971 198.46 338.631 199.56 336.991 200.4C335.351 201.2 333.531 201.6 331.531 201.6ZM333.151 193.32C334.471 193.32 335.611 193.04 336.571 192.48C337.531 191.88 338.291 191.06 338.851 190.02C339.411 188.98 339.691 187.78 339.691 186.42C339.691 185.06 339.411 183.88 338.851 182.88C338.331 181.84 337.571 181.02 336.571 180.42C335.611 179.82 334.491 179.52 333.211 179.52C331.931 179.52 330.791 179.82 329.791 180.42C328.831 181.02 328.051 181.84 327.451 182.88C326.891 183.92 326.611 185.1 326.611 186.42C326.611 187.74 326.891 188.92 327.451 189.96C328.011 191 328.791 191.82 329.791 192.42C330.791 193.02 331.911 193.32 333.151 193.32ZM348.331 201H339.331V193.14L340.711 186.06L339.151 178.98V157.44H348.331V201ZM354.795 201V171.84H363.975V201H354.795ZM373.455 201V183.96C373.455 182.48 372.995 181.34 372.075 180.54C371.195 179.7 370.095 179.28 368.775 179.28C367.855 179.28 367.035 179.48 366.315 179.88C365.595 180.24 365.015 180.76 364.575 181.44C364.175 182.12 363.975 182.96 363.975 183.96L360.435 182.4C360.435 180.08 360.935 178.1 361.935 176.46C362.935 174.78 364.295 173.5 366.015 172.62C367.735 171.7 369.675 171.24 371.835 171.24C373.875 171.24 375.695 171.7 377.295 172.62C378.935 173.54 380.235 174.82 381.195 176.46C382.155 178.1 382.635 180.06 382.635 182.34V201H373.455ZM392.115 201V183.96C392.115 182.48 391.655 181.34 390.735 180.54C389.855 179.7 388.755 179.28 387.435 179.28C386.515 179.28 385.695 179.48 384.975 179.88C384.255 180.24 383.675 180.76 383.235 181.44C382.835 182.12 382.635 182.96 382.635 183.96L377.355 183.24C377.435 180.76 378.015 178.64 379.095 176.88C380.215 175.08 381.675 173.7 383.475 172.74C385.315 171.74 387.375 171.24 389.655 171.24C391.895 171.24 393.875 171.72 395.595 172.68C397.355 173.6 398.735 174.94 399.735 176.7C400.775 178.42 401.295 180.5 401.295 182.94V201H392.115ZM407.178 201V171.84H416.358V201H407.178ZM411.798 167.82C410.358 167.82 409.158 167.34 408.198 166.38C407.278 165.38 406.818 164.18 406.818 162.78C406.818 161.34 407.278 160.14 408.198 159.18C409.158 158.22 410.358 157.74 411.798 157.74C413.238 157.74 414.418 158.22 415.338 159.18C416.258 160.14 416.718 161.34 416.718 162.78C416.718 164.18 416.258 165.38 415.338 166.38C414.418 167.34 413.238 167.82 411.798 167.82ZM433.442 201.72C431.722 201.72 430.022 201.5 428.342 201.06C426.702 200.62 425.162 200 423.722 199.2C422.322 198.36 421.122 197.4 420.122 196.32L425.342 191.04C426.302 192.08 427.442 192.9 428.762 193.5C430.082 194.06 431.522 194.34 433.082 194.34C434.162 194.34 434.982 194.18 435.542 193.86C436.142 193.54 436.442 193.1 436.442 192.54C436.442 191.82 436.082 191.28 435.362 190.92C434.682 190.52 433.802 190.18 432.722 189.9C431.642 189.58 430.502 189.24 429.302 188.88C428.102 188.52 426.962 188.02 425.882 187.38C424.802 186.74 423.922 185.86 423.242 184.74C422.562 183.58 422.222 182.12 422.222 180.36C422.222 178.48 422.702 176.86 423.662 175.5C424.622 174.1 425.982 173 427.742 172.2C429.502 171.4 431.562 171 433.922 171C436.402 171 438.682 171.44 440.762 172.32C442.882 173.16 444.602 174.42 445.922 176.1L440.702 181.38C439.782 180.3 438.742 179.54 437.582 179.1C436.462 178.66 435.362 178.44 434.282 178.44C433.242 178.44 432.462 178.6 431.942 178.92C431.422 179.2 431.162 179.62 431.162 180.18C431.162 180.78 431.502 181.26 432.182 181.62C432.862 181.98 433.742 182.3 434.822 182.58C435.902 182.86 437.042 183.2 438.242 183.6C439.442 184 440.582 184.54 441.662 185.22C442.742 185.9 443.622 186.82 444.302 187.98C444.982 189.1 445.322 190.58 445.322 192.42C445.322 195.26 444.242 197.52 442.082 199.2C439.962 200.88 437.082 201.72 433.442 201.72ZM460.923 201.72C459.203 201.72 457.503 201.5 455.823 201.06C454.183 200.62 452.643 200 451.203 199.2C449.803 198.36 448.603 197.4 447.603 196.32L452.823 191.04C453.783 192.08 454.923 192.9 456.243 193.5C457.563 194.06 459.003 194.34 460.563 194.34C461.643 194.34 462.463 194.18 463.023 193.86C463.623 193.54 463.923 193.1 463.923 192.54C463.923 191.82 463.563 191.28 462.843 190.92C462.163 190.52 461.283 190.18 460.203 189.9C459.123 189.58 457.983 189.24 456.783 188.88C455.582 188.52 454.443 188.02 453.363 187.38C452.283 186.74 451.403 185.86 450.723 184.74C450.043 183.58 449.703 182.12 449.703 180.36C449.703 178.48 450.183 176.86 451.143 175.5C452.103 174.1 453.463 173 455.223 172.2C456.983 171.4 459.043 171 461.403 171C463.883 171 466.163 171.44 468.243 172.32C470.363 173.16 472.083 174.42 473.403 176.1L468.183 181.38C467.263 180.3 466.223 179.54 465.063 179.1C463.943 178.66 462.843 178.44 461.763 178.44C460.723 178.44 459.943 178.6 459.423 178.92C458.903 179.2 458.643 179.62 458.643 180.18C458.643 180.78 458.983 181.26 459.663 181.62C460.343 181.98 461.223 182.3 462.303 182.58C463.383 182.86 464.523 183.2 465.723 183.6C466.923 184 468.063 184.54 469.143 185.22C470.223 185.9 471.103 186.82 471.783 187.98C472.463 189.1 472.803 190.58 472.803 192.42C472.803 195.26 471.723 197.52 469.563 199.2C467.443 200.88 464.563 201.72 460.923 201.72ZM477.783 201V171.84H486.963V201H477.783ZM482.403 167.82C480.963 167.82 479.763 167.34 478.803 166.38C477.883 165.38 477.423 164.18 477.423 162.78C477.423 161.34 477.883 160.14 478.803 159.18C479.763 158.22 480.963 157.74 482.403 157.74C483.843 157.74 485.023 158.22 485.943 159.18C486.863 160.14 487.323 161.34 487.323 162.78C487.323 164.18 486.863 165.38 485.943 166.38C485.023 167.34 483.843 167.82 482.403 167.82ZM507.468 201.66C504.468 201.66 501.748 201 499.308 199.68C496.908 198.32 495.008 196.48 493.608 194.16C492.208 191.84 491.508 189.24 491.508 186.36C491.508 183.48 492.208 180.9 493.608 178.62C495.008 176.34 496.908 174.54 499.308 173.22C501.708 171.86 504.428 171.18 507.468 171.18C510.508 171.18 513.228 171.84 515.628 173.16C518.028 174.48 519.928 176.3 521.328 178.62C522.728 180.9 523.428 183.48 523.428 186.36C523.428 189.24 522.728 191.84 521.328 194.16C519.928 196.48 518.028 198.32 515.628 199.68C513.228 201 510.508 201.66 507.468 201.66ZM507.468 193.32C508.788 193.32 509.948 193.04 510.948 192.48C511.948 191.88 512.708 191.06 513.228 190.02C513.788 188.94 514.068 187.72 514.068 186.36C514.068 185 513.788 183.82 513.228 182.82C512.668 181.78 511.888 180.98 510.888 180.42C509.928 179.82 508.788 179.52 507.468 179.52C506.188 179.52 505.048 179.82 504.048 180.42C503.048 180.98 502.268 181.78 501.708 182.82C501.148 183.86 500.868 185.06 500.868 186.42C500.868 187.74 501.148 188.94 501.708 190.02C502.268 191.06 503.048 191.88 504.048 192.48C505.048 193.04 506.188 193.32 507.468 193.32ZM547.258 201V184.38C547.258 182.86 546.778 181.64 545.818 180.72C544.898 179.76 543.718 179.28 542.278 179.28C541.278 179.28 540.398 179.5 539.638 179.94C538.878 180.34 538.278 180.94 537.838 181.74C537.398 182.5 537.178 183.38 537.178 184.38L533.638 182.64C533.638 180.36 534.138 178.36 535.138 176.64C536.138 174.92 537.518 173.6 539.278 172.68C541.078 171.72 543.098 171.24 545.338 171.24C547.498 171.24 549.398 171.76 551.038 172.8C552.718 173.8 554.038 175.14 554.998 176.82C555.958 178.5 556.438 180.34 556.438 182.34V201H547.258ZM527.998 201V171.84H537.178V201H527.998Z" fill="#6764D5"/>
<path d="M55.4661 235.483C55.4241 235.473 55.3811 235.464 55.3381 235.458C55.3811 235.461 55.4241 235.468 55.4661 235.483Z" fill="white"/>
<g opacity="0.7">
<path d="M129.998 261.957C121.133 273.26 104.783 275.231 93.4803 266.366C82.1707 257.496 80.1998 241.146 89.064 229.844C96.4769 220.392 109.129 217.46 119.676 221.939L132.502 205.787L130.847 204.492L133.394 201.237L147.419 212.24L144.872 215.496L143.21 214.197L130.376 230.346C137.245 239.526 137.416 252.498 129.998 261.957Z" fill="#38BB94"/>
<path d="M129.998 261.957C127.031 265.757 122.994 268.719 118.455 270.373C113.924 272.043 108.922 272.42 104.186 271.432C99.4514 270.453 94.9999 268.138 91.4673 264.816C87.9327 261.496 85.3503 257.164 84.1133 252.455C82.862 247.754 82.942 242.691 84.3841 238.023C85.8132 233.351 88.5749 229.092 92.2666 225.865C95.9436 222.618 100.575 220.467 105.428 219.706C110.281 218.923 115.349 219.531 119.887 221.442L119.254 221.604L125.645 213.51L132.09 205.459L132.178 206.203L130.527 204.901L130.117 204.578L130.438 204.172L132.997 200.927L133.31 200.53L133.705 200.84C138.377 204.513 142.994 208.253 147.639 211.96L147.918 212.183L147.699 212.458L145.119 215.688L144.921 215.935L144.678 215.742L143.029 214.425L143.438 214.377L130.446 230.398L130.448 230.291C133.854 234.846 135.676 240.541 135.584 246.216C135.524 251.894 133.52 257.515 129.998 261.957ZM129.998 261.957C133.496 257.497 135.465 251.874 135.496 246.216C135.558 240.559 133.713 234.904 130.307 230.397L130.266 230.343L130.309 230.289L142.981 214.013L143.158 213.787L143.391 213.965L145.065 215.248L144.626 215.302L147.141 212.02L147.2 212.518C142.494 208.89 137.763 205.294 133.084 201.632L133.791 201.546L131.256 204.812L131.168 204.083L132.828 205.371L133.247 205.696L132.917 206.115L126.536 214.217L120.101 222.276L119.843 222.598L119.467 222.437C115.125 220.582 110.26 219.971 105.586 220.7C100.915 221.421 96.4381 223.442 92.8358 226.525C89.2248 229.597 86.4834 233.696 85.032 238.228C83.5669 242.757 83.4178 247.707 84.5856 252.338C85.7381 256.975 88.2207 261.275 91.6727 264.604C95.1189 267.938 99.5093 270.306 104.219 271.288C108.921 272.295 113.906 271.948 118.432 270.305C122.963 268.677 127.011 265.742 129.998 261.957Z" fill="#756A0B"/>
</g>
<defs>
<linearGradient id="paint0_linear_11_7232" x1="45.5798" y1="307.09" x2="109.346" y2="419.801" gradientUnits="userSpaceOnUse">
<stop stop-color="#DE5AFF"/>
<stop offset="1" stop-color="#B829FB" stop-opacity="0"/>
</linearGradient>
</defs>
</svg>
