<svg width="577" height="760" viewBox="0 0 577 760" fill="none" xmlns="http://www.w3.org/2000/svg">
<path d="M544.527 462.41L34.7245 464.999C16.6465 465.135 1.97931 450.556 1.84288 432.57L0.000948614 68.4274C-0.13549 50.3735 14.4634 35.7261 32.4733 35.5898L542.275 33.0009C560.354 32.8647 575.021 47.444 575.157 65.4298L576.999 429.573C577.136 447.626 562.537 462.342 544.527 462.41Z" fill="#A3A092" fill-opacity="0.16"/>
<path d="M349.971 46.3689C349.987 49.6816 347.315 52.3805 344.002 52.3977L234.139 52.9688C230.824 52.986 228.124 50.3123 228.108 46.9978L228.029 30.6311C228.013 27.3184 230.685 24.6195 233.998 24.6023L343.861 24.0312C347.176 24.014 349.876 26.6877 349.892 30.0022L349.971 46.3689Z" fill="#706865"/>
<path d="M248.069 303L248 291.068L267 291L248.069 303Z" fill="#C9C9C9"/>
<path d="M516.774 280L490.557 268.659C488.403 267.756 487.41 265.249 488.362 263.113C489.273 260.976 491.8 260.031 493.912 260.935L512.467 268.947L525.886 239.486C526.839 237.35 529.365 236.405 531.477 237.391C533.631 238.336 534.584 240.842 533.631 242.938L516.774 280Z" fill="#FF7DB4"/>
<path fill-rule="evenodd" clip-rule="evenodd" d="M544.832 303.116C520.238 320.383 486.169 314.444 468.902 289.849C451.594 265.255 457.574 231.184 482.168 213.917C506.762 196.608 540.831 202.546 558.098 227.141C575.406 251.778 569.426 285.849 544.832 303.116ZM486.632 220.276C465.533 235.1 460.438 264.286 475.261 285.385C490.085 306.443 519.27 311.581 540.368 296.756C561.467 281.932 566.562 252.704 551.739 231.647C536.915 210.548 507.731 205.452 486.632 220.276Z" fill="#FF7DB4"/>
<path fill-rule="evenodd" clip-rule="evenodd" d="M472.05 106.144C468.1 104.375 464.817 101.507 462.771 97.9224C460.439 93.8594 459.964 89.3662 461.391 85.3032C463.675 77.0816 464.103 67.8561 464.056 61.4509C457.061 50.1223 456.062 36.1647 461.391 23.9279C470.337 3.66065 493.985 -5.51696 514.161 3.42165C534.336 12.4081 543.519 36.1647 534.574 56.4319C529.72 67.4737 520.346 75.5998 508.784 78.898C503.264 85.5422 499.077 91.9952 496.412 98.018C493.367 106.335 483.089 110.207 473.477 106.718C473.001 106.558 472.526 106.367 472.05 106.144ZM512.828 6.43306C494.319 -1.78856 472.573 6.67205 464.389 25.2663C459.44 36.5949 460.439 49.6443 467.054 60.1125L467.339 60.4949V60.9729C467.387 67.6171 467.006 77.4162 464.532 86.2114V86.3548C463.39 89.5096 463.77 93.0468 465.626 96.2972C467.482 99.5954 470.67 102.224 474.572 103.658C482.518 106.526 490.94 103.467 493.319 96.823L493.367 96.7752V96.7274C496.269 90.2744 500.695 83.439 506.595 76.3646L506.928 75.9822L507.451 75.8388C518.253 72.923 527.055 65.3705 531.576 55.0935C539.76 36.4993 531.386 14.6547 512.828 6.43306Z" fill="#48954B"/>
<path d="M470 91.0664L479.581 48L485.605 58.1445L493.004 54.125L495.613 61.3506L506 57.3789L486.601 97L483.708 95.5645L499.407 63.4082L493.715 65.5615L491.249 58.8145L484.419 62.5469L481.004 56.7568L473.178 91.7842L470 91.0664Z" fill="#48954B"/>
<path d="M490.649 116L455 103.278L461.35 86L497 98.7215L490.649 116Z" fill="#48954B"/>
<path d="M350 515H473V523H350V515Z" fill="#254380"/>
<path d="M457 760H446V542H457V760Z" fill="#706865"/>
<path d="M283 513H369V524H283V513Z" fill="#CCBDB7"/>
<path d="M310 523H342V424H310V523Z" fill="#FFAA55"/>
<path d="M43 542H517V523H43V542Z" fill="#B59074"/>
<path d="M103 760H114V542H103V760Z" fill="#706865"/>
<path d="M195.249 488H446.751C454.591 488 461 481.575 461 473.716V304.284C461 296.356 454.591 290 446.751 290H195.249C187.34 290 181 296.356 181 304.284V473.716C181 481.575 187.34 488 195.249 488Z" fill="#2B4F96"/>
<path d="M192 457H450V301H192V457Z" fill="#F5F7FF"/>
<path d="M252 523V519.505C252 519.505 256.965 498 291.788 498C326.679 498 325.999 523 325.999 523H252Z" fill="#FFC655"/>
<path d="M363.056 323H434.944C436.041 323 437 322.14 437 321.017V316.983C437 315.926 436.041 315 434.944 315H363.056C361.891 315 361 315.926 361 316.983V321.017C361 322.14 361.891 323 363.056 323Z" fill="#DFE1E8"/>
<path d="M367.853 428H430.078C433.848 428 437 424.936 437 421.124V341.808C437 338.064 433.848 335 430.078 335H367.853C364.084 335 361 338.064 361 341.808V421.124C361 424.936 364.084 428 367.853 428Z" fill="#DFE1E8"/>
<path d="M216.937 444H330.132C336.147 444 341 439.095 341 433.1V323.9C341 317.905 336.147 313 330.132 313H216.937C210.922 313 206 317.905 206 323.9V433.1C206 439.095 210.922 444 216.937 444Z" fill="#DFE1E8"/>
<path d="M477.5 418C494.316 418 508 404.316 508 387.5C508 382.939 506.979 378.65 505.209 374.769C500.375 364.285 489.754 357 477.5 357C460.616 357 447 370.684 447 387.5C447 393.287 448.566 398.665 451.357 403.295C456.735 412.145 466.403 418 477.5 418Z" fill="#36572B"/>
<path d="M508.534 415C520.399 415 530 405.399 530 393.466C530 392.78 529.977 392.117 529.931 391.477C528.903 380.504 519.713 372 508.534 372C496.67 372 487 381.601 487 393.466C487 401.01 490.909 407.662 496.738 411.502C500.099 413.697 504.145 415 508.534 415Z" fill="#45613C"/>
<path d="M477.281 389C477.281 389 475.564 403.135 475.014 422.366C474.465 441.598 489.848 441.598 489.848 441.598V512H500.561C500.561 512 500.355 440.171 505.643 434.394C511 428.618 511 401.232 511 401.232L507.978 399.465C507.978 399.465 512.511 431.88 491.702 436.637C470.894 441.394 478.723 390.359 478.723 390.359L477.281 389Z" fill="#925E2E"/>
<path d="M470.255 392.176C487.989 388.929 499.651 381.421 506 374.656C501.101 364.238 490.336 357 477.915 357C460.801 357 447 370.597 447 387.306C447 393.056 448.587 398.4 451.416 403C452.313 398.874 456.868 394.612 470.255 392.176Z" fill="#48753A"/>
<path d="M514.819 399.016C521.963 396.984 526.84 394.208 530 391.229C528.97 380.396 519.765 372 508.569 372C496.685 372 487 381.479 487 393.193C487 400.641 490.915 407.208 496.754 411C498.952 406.937 503.898 402.13 514.819 399.016Z" fill="#538742"/>
<path d="M527 479H455L458.754 493H522.496L527 479Z" fill="#877670"/>
<path d="M518 493H465L472.378 523H512.856L518 493Z" fill="#876455"/>
<path d="M511 374.392L512.873 375C512.873 375 515.855 367.167 515.994 366.087C516.202 365.006 511 374.392 511 374.392Z" fill="#538742"/>
<path d="M528 375L519 378.077C519 378.077 519.067 379 520.267 379C521.467 379 528 375 528 375Z" fill="#538742"/>
<path d="M471.196 395H469C469 395 469.452 398.453 471.196 400.619C473.005 402.786 471.196 395 471.196 395Z" fill="#538742"/>
<path d="M469.122 351.028C468.279 351.697 472.073 362 472.073 362H474C474 362 469.965 350.359 469.122 351.028Z" fill="#48753A"/>
<path d="M478.944 359.84C479.393 356.9 477 352 477 352V359.35C477 359.35 478.57 362.71 478.944 359.84Z" fill="#48753A"/>
<path d="M407.732 400.922C408.94 399.802 409 390 409 390L407.129 390.77C407.129 390.77 406.585 402.042 407.732 400.922Z" fill="#48753A"/>
<path d="M503 493H467L474.489 523H486.305C479.641 498.824 503 493 503 493Z" fill="#715346"/>
<path d="M474.122 523C476.974 521.747 481.551 507.621 483.74 500.314C484.536 497.74 485 496 485 496H459C461.255 512.84 466.694 523 466.694 523H474.122Z" fill="#9E633A"/>
<path d="M476.257 488.566C476.257 487.588 480.256 483.47 482.287 480.748C484.255 478.095 481.525 473 481.525 473C472.575 477.048 474.098 488.566 474.098 488.566C474.098 488.566 476.257 489.543 476.257 488.566Z" fill="#97A43C"/>
<path d="M470.818 489H471.971C471.971 489 472.786 469.568 465.729 466.909C458.672 464.25 458.672 459 458.672 459C458.672 459 456.501 466.295 459.962 470.045C463.422 473.864 467.357 478.295 466.747 481.977C466.068 485.591 470.818 489 470.818 489Z" fill="#97A43C"/>
<path d="M483.74 500.314C484.536 497.74 485 496 485 496H459C461.255 512.84 466.694 523 466.694 523H468.418C468.087 507.204 477.969 501.985 483.74 500.314Z" fill="#82522F"/>
<path d="M484.931 488H458.537L457 496H486L484.931 488Z" fill="#C67B47"/>
<path d="M135 523H52.9938C49.6563 523 47 520.302 47 516.981V507.088C47 503.698 49.6563 501 52.9938 501H135V523Z" fill="url(#paint0_linear_4_8)"/>
<path d="M149.558 503.283V520.786H151V523H91.0437C87.7471 523 85 520.302 85 516.981V507.088C85 503.698 87.7471 501 91.0437 501H151V503.283H149.558Z" fill="#FF9F55"/>
<path d="M149 520H94.9657C91.6743 520 89 517.312 89 514.087V508.913C89 505.621 91.6743 503 94.9657 503H149V520Z" fill="#EFF7FE"/>
<path d="M139 501H48.6123C44.429 501 41 497.689 41 493.568V483.432C41 479.311 44.429 476 48.6123 476H139V501Z" fill="url(#paint1_linear_4_8)"/>
<path d="M154.781 478.568V498.432H156V501H107.449C103.318 501 100 497.689 100 493.568V483.432C100 479.311 103.318 476 107.449 476H156V478.568H154.781Z" fill="#5284FC"/>
<path d="M155 498H110.655C106.448 498 103 494.667 103 490.517V485.483C103 481.333 106.448 478 110.655 478H155V498Z" fill="#EFF7FE"/>
<path d="M74 476H142.765C147.294 476 151 472.313 151 467.806V453.126C151 448.619 147.294 445 142.765 445H74V476Z" fill="url(#paint2_linear_4_8)"/>
<path d="M62.2101 448.141V472.791H61V476H109C113.437 476 117 472.313 117 467.806V453.126C117 448.619 113.437 445 109 445H61V448.141H62.2101Z" fill="#FF9F55"/>
<path d="M62 473H104.976C109.396 473 113 469.33 113 464.759V456.241C113 451.74 109.396 448 104.976 448H62V473Z" fill="#EFF7FE"/>
<path d="M125 445H52.5227C47.8182 445 44 441.108 44 436.396V422.535C44 417.824 47.8182 414 52.5227 414H125V445Z" fill="url(#paint3_linear_4_8)"/>
<path d="M138.687 417.141V441.791H140V445H87.7044C82.8687 445 79 441.108 79 436.396V422.535C79 417.824 82.8687 414 87.7044 414H140V417.141H138.687Z" fill="#5284FC"/>
<path d="M138 442H92.4587C87.7895 442 84 438.122 84 433.343V425.657C84 420.878 87.7895 417 92.4587 417H138V442Z" fill="#EFF7FE"/>
<path d="M146 414H70.3182C67.3864 414 65 411.558 65 408.558V395.442C65 392.442 67.3864 390 70.3182 390H146V414Z" fill="url(#paint4_linear_4_8)"/>
<path d="M158.709 392.442V411.488H160V414H105.3C102.378 414 100 411.558 100 408.558V395.442C100 392.442 102.378 390 105.3 390H160V392.442H158.709Z" fill="#5284FC"/>
<path d="M159 411H109.329C106.391 411 104 408.692 104 405.857V398.143C104 395.308 106.391 393 109.329 393H159V411Z" fill="#EFF7FE"/>
<path d="M386 319.388L369.821 377.413C369.275 379.254 368.661 381.573 367.91 384.3V384.368C367.91 384.414 367.91 384.436 367.91 384.436C365.179 394.801 361.834 410.551 360.879 428.075C360.196 440.007 362.38 487.942 362.38 487.942C362.38 487.942 337.873 497.079 301.284 494.76C301.284 494.76 266.059 502.67 269.267 478.532C277.732 414.711 265.24 379.527 264.147 373.049C264.147 373.049 258.823 342.025 255 316.047C266.059 311.955 313.435 296 313.435 296L337.942 297.841C337.942 297.841 375.282 307.046 386 319.388Z" fill="#D44040"/>
<path d="M325.364 214.27C325.364 214.27 349.615 218.362 345.538 255.802C341.393 293.242 319.975 289.969 318.593 289.901C317.142 289.833 297.037 290.378 296 244.55C296 244.55 295.655 210.655 325.364 214.27Z" fill="#EEA987"/>
<path d="M336.29 279.404C336.29 279.404 335.45 295.002 336.921 298.384C338.462 301.765 317.168 312.532 304 300.316C304 300.316 306.662 283.2 305.821 277.196C305.051 271.191 336.29 279.404 336.29 279.404Z" fill="#EEA987"/>
<path d="M345.498 245.224C345.498 245.224 348.04 242.425 348.888 245.292C349.8 248.091 344.846 260.789 345.172 261.335C345.172 261.335 344.716 262.427 344.13 261.813C343.478 261.198 345.498 245.224 345.498 245.224Z" fill="#EEA987"/>
<path d="M296.731 244.302C296.731 244.302 294.245 241.418 293.171 244.235C292.163 246.985 295.925 259.393 296.395 260.13C296.395 260.13 297.201 261.405 297.873 260.868C298.477 260.265 296.731 244.302 296.731 244.302Z" fill="#EEA987"/>
<path d="M346.824 241.98C346.017 247.055 345.278 250.843 345.278 250.843L341.85 255.376C341.85 255.376 342.052 245.363 341.514 243.807C341.312 243.198 341.043 242.183 340.842 241.033C340.438 239.139 340.035 237.041 339.766 236.297C339.296 235.215 319.534 229.396 301.924 237.515C301.924 237.515 302.058 239.071 302.058 240.763C302.058 242.792 301.857 245.025 300.916 245.363C299.235 245.972 299.975 257 299.975 257L297.219 253.82C297.219 253.82 296.412 248.069 295.606 241.439C295.606 241.439 295.606 241.417 295.606 241.371C295.471 239.815 295.27 238.192 295.068 236.636C294.732 229.938 295.337 217.827 304.008 210.723C309.855 208.22 319.131 206.055 334.658 210.859C334.658 210.859 338.22 211.129 339.228 212.076C348.84 222.766 346.824 241.98 346.824 241.98Z" fill="#252E3B"/>
<path d="M308 285C308 285 311.753 290.318 320.534 290.113C329.247 289.909 333 285.341 333 285.341C333 285.341 328.911 294.068 320.466 294C312.021 293.931 308 285 308 285Z" fill="#C78D71"/>
<path d="M302 300.343C302 300.343 308.385 312 320.543 312C332.702 312.065 337.457 303.664 338 298.65C338 298.65 320.747 291.682 302 300.343Z" fill="#EEA987"/>
<path d="M359.317 429.458C359.317 429.458 356.192 441.525 369.573 446C369.573 446 420.449 410.136 420.992 404.915C421.536 400.102 393.754 324.169 383.634 318L373.581 361.797C374.803 361.458 392.056 387.424 392.192 392.78C392.26 399.898 359.317 429.458 359.317 429.458Z" fill="#D44040"/>
<path d="M275.682 433.25C275.682 433.25 278.802 445.469 265.507 450C265.507 450 205.615 403.937 205.004 398.652C204.529 393.846 244.277 322.316 254.451 316L265.033 363.435C263.812 363.092 241.157 390.071 241.089 395.425C240.953 402.633 275.682 433.25 275.682 433.25Z" fill="#D44040"/>
<path d="M231.082 692.342C231.082 692.342 224.612 697.959 218.831 706.59C213.049 715.221 197.701 715.7 197.013 727.482C196.394 739.263 217.936 739.674 229.223 735.838C240.511 732.003 242.232 720.427 249.045 717.55C255.928 714.673 259.438 712.344 258.956 706.727C258.406 701.11 254.62 692 254.62 692C254.62 692 250.353 693.37 247.875 693.644C245.398 693.918 237.001 693.986 231.082 692.342Z" fill="#3F446E"/>
<path d="M388.565 685.613C388.565 685.613 394.538 692.083 397.972 696.034C401.473 699.984 414.931 707 415 718.647C415.068 731.315 405.112 730.225 396.255 729.749C387.329 729.34 380.188 723.21 376.412 716.058C372.704 708.907 362.748 707 362.062 701.21C361.375 695.421 366.662 685 366.662 685L388.565 685.613Z" fill="#3F446E"/>
<path d="M368.172 674L367 685.115C367 685.115 385.621 693.417 389 685.749L388.241 675.829L368.172 674Z" fill="#EEA886"/>
<path d="M231.971 685L231 692.416C231 692.416 242.306 696.188 254.723 692.09L255 685.455L231.971 685Z" fill="#EEA886"/>
<path d="M370.114 483C370.114 483 405.791 512.187 405.995 528.281C406.199 544.444 400.004 589.18 399.595 598.045C399.118 606.91 390.812 680.765 390.812 680.765C390.812 680.765 384.412 686.698 365.076 679.197C365.076 679.197 360.854 609.161 360.378 601.659C359.901 594.226 359.901 559.651 355.612 554.673C351.322 549.626 325.246 534.01 321.841 531.009C318.437 528.077 259.135 542.261 252.939 543.83C236.871 548.058 244.156 576.086 247.764 588.634C253.688 609.638 258.862 685.607 258.862 685.607C258.862 685.607 247.424 690.449 228.224 686.357C228.224 686.357 190.573 549.217 189.347 535.647C188.122 522.008 185.262 501.89 278.062 484.773L370.114 483Z" fill="#292C47"/>
<path d="M306 483V380H323V483H306Z" fill="#D4C1BB"/>
<path d="M393 368.706V473.962L323 487V379.696L390.873 367L393 368.706Z" fill="#D4C1BB"/>
<path d="M306 487V380H323V487H306Z" fill="#D4C1BB"/>
<path d="M393 480.446L323 494V382.486L393 369V480.446Z" fill="#D44040"/>
<path d="M237 368.706V473.962L306 487V379.696L239.163 367L237 368.706Z" fill="#D4C1BB"/>
<path d="M237 480.446L306 494V382.486L237 369V480.446Z" fill="#548AD1"/>
<path d="M306 494V382H323V494H306Z" fill="#426CA3"/>
<path d="M244.004 403C244.004 403 230.816 403.202 228.272 410.267C225.728 417.332 227.469 425.137 229.41 428.501C231.285 431.866 236.774 440.344 240.59 437.383C252.639 427.896 244.004 403 244.004 403Z" fill="#EEA886"/>
<path d="M231.008 406C231.008 406 230.662 396.381 234.534 397.032C238.337 397.683 236.608 404.553 236.608 404.553L231.008 406Z" fill="#EEA886"/>
<path d="M316 380.645L372.289 357L376 358.152L319.78 382L316 380.645Z" fill="#D4C1BB"/>
<path d="M376 358V371.133L323 381L376 358Z" fill="#BDABA6"/>
<path d="M393 368.706V473.962L323 487V379.696L390.873 367L393 368.706Z" fill="#D4C1BB"/>
<path d="M393 480.446L323 494V382.486L393 369V480.446Z" fill="#548AD1"/>
<path d="M374 434.205L345 440V412.795L374 407V434.205Z" fill="#5F9DED"/>
<path d="M386.088 402.01C386.088 402.01 399.347 401.466 402.308 408.399C405.202 415.399 403.856 423.419 402.173 426.885C400.424 430.351 395.376 439.255 391.405 436.468C378.819 427.565 386.088 402.01 386.088 402.01Z" fill="#EEA886"/>
<path d="M395 404C395 404 394.803 395.199 391.183 396.059C387.563 396.853 389.537 403.007 389.537 403.007L395 404Z" fill="#EEA886"/>
<path d="M244 367.861C244 367.861 271.227 359.124 312 379.51L304.717 381L244 367.861Z" fill="#D4C1BB"/>
<path d="M335 211.258C335 211.258 343.612 209.106 346.352 217.242C350.593 229.683 345.308 251 345.308 251L335 211.258Z" fill="#252E3B"/>
<path d="M55.2574 139.882V127.481H72.2135C75.3459 127.481 77.7974 126.566 79.5679 124.736C81.3385 122.907 82.2237 120.67 82.2237 118.027C82.2237 116.198 81.8151 114.571 80.998 113.148C80.1808 111.725 79.0232 110.607 77.525 109.794C76.095 108.981 74.3245 108.574 72.2135 108.574H55.2574V96.478H70.8856C73.5414 96.478 75.6864 95.8343 77.3208 94.5467C78.9551 93.1914 79.7722 91.1584 79.7722 88.4478C79.7722 85.8049 78.9551 83.8397 77.3208 82.5522C75.6864 81.1969 73.5414 80.5192 70.8856 80.5192H55.2574V68.1181H73.95C78.5805 68.1181 82.4961 68.9652 85.6966 70.6593C88.9653 72.3535 91.4508 74.6236 93.1532 77.4698C94.8557 80.3159 95.7069 83.467 95.7069 86.9231C95.7069 91.3278 94.2768 95.0549 91.4168 98.1044C88.5567 101.154 84.3347 103.255 78.7508 104.407L79.1594 99.0192C85.22 100.171 89.8846 102.509 93.1532 106.033C96.49 109.557 98.1583 113.894 98.1583 119.044C98.1583 122.974 97.171 126.532 95.1961 129.717C93.2894 132.834 90.4975 135.308 86.8202 137.137C83.2111 138.967 78.8529 139.882 73.7457 139.882H55.2574ZM43 139.882V68.1181H58.8325V139.882H43Z" fill="#3C47AC"/>
<path d="M142.655 141C137.276 141 132.271 140.085 127.64 138.256C123.078 136.358 119.06 133.715 115.587 130.327C112.182 126.939 109.526 123.008 107.62 118.536C105.713 113.995 104.759 109.116 104.759 103.898C104.759 98.6804 105.713 93.8352 107.62 89.3626C109.526 84.8223 112.182 80.8919 115.587 77.5714C118.992 74.2509 122.975 71.6758 127.538 69.8462C132.168 67.9487 137.174 67 142.553 67C148.273 67 153.346 67.9148 157.773 69.7445C162.267 71.5742 166.183 74.0815 169.519 77.2665L158.794 88.0412C156.888 86.0082 154.572 84.4158 151.848 83.2637C149.193 82.1117 146.094 81.5357 142.553 81.5357C139.421 81.5357 136.527 82.0778 133.871 83.1621C131.283 84.1786 129.036 85.6694 127.129 87.6346C125.291 89.5998 123.827 91.9716 122.737 94.75C121.716 97.5284 121.205 100.578 121.205 103.898C121.205 107.287 121.716 110.37 122.737 113.148C123.827 115.927 125.291 118.299 127.129 120.264C129.036 122.229 131.283 123.754 133.871 124.838C136.527 125.922 139.421 126.464 142.553 126.464C146.23 126.464 149.431 125.888 152.155 124.736C154.879 123.584 157.228 121.992 159.203 119.959L170.03 130.734C166.557 133.919 162.574 136.426 158.079 138.256C153.653 140.085 148.512 141 142.655 141Z" fill="#3C47AC"/>
<path d="M199.319 141C193.394 141 188.287 140.051 183.997 138.154C179.775 136.189 175.893 133.241 172.352 129.31L182.771 119.044C185.086 121.687 187.64 123.754 190.432 125.245C193.292 126.668 196.595 127.379 200.34 127.379C203.745 127.379 206.367 126.769 208.205 125.549C210.112 124.33 211.065 122.636 211.065 120.467C211.065 118.502 210.453 116.909 209.227 115.69C208.001 114.47 206.367 113.419 204.324 112.538C202.349 111.658 200.136 110.81 197.684 109.997C195.301 109.184 192.918 108.269 190.534 107.253C188.151 106.169 185.938 104.847 183.895 103.288C181.92 101.662 180.32 99.663 179.094 97.2912C177.868 94.8516 177.255 91.8022 177.255 88.1429C177.255 83.7381 178.311 79.9432 180.422 76.7582C182.601 73.5733 185.597 71.1676 189.411 69.5412C193.224 67.8471 197.616 67 202.587 67C207.627 67 212.223 67.881 216.377 69.6429C220.599 71.4048 224.072 73.8104 226.796 76.8599L216.377 87.1264C214.198 84.8901 211.985 83.2299 209.738 82.1456C207.558 81.0614 205.073 80.5192 202.281 80.5192C199.489 80.5192 197.276 81.0614 195.641 82.1456C194.007 83.1621 193.19 84.6529 193.19 86.6181C193.19 88.4478 193.803 89.9386 195.029 91.0907C196.254 92.1749 197.855 93.1236 199.829 93.9368C201.872 94.75 204.085 95.5632 206.469 96.3764C208.92 97.1896 211.338 98.1383 213.721 99.2225C216.105 100.307 218.284 101.696 220.258 103.39C222.301 105.016 223.936 107.117 225.161 109.692C226.387 112.2 227 115.317 227 119.044C227 125.888 224.549 131.276 219.646 135.206C214.743 139.069 207.967 141 199.319 141Z" fill="#3C47AC"/>
<path d="M324.179 157.568V149.268H334.538C335.856 149.268 337.06 148.996 338.151 148.451C339.241 147.907 340.105 147.113 340.741 146.07C341.377 145.027 341.695 143.757 341.695 142.26C341.695 140.809 341.377 139.562 340.741 138.518C340.105 137.475 339.241 136.681 338.151 136.137C337.06 135.593 335.856 135.321 334.538 135.321H324.179V127.021H336.106C339.15 127.021 341.899 127.633 344.353 128.857C346.807 130.082 348.738 131.851 350.146 134.164C351.6 136.432 352.327 139.131 352.327 142.26C352.327 145.39 351.6 148.111 350.146 150.424C348.738 152.692 346.807 154.461 344.353 155.731C341.899 156.956 339.15 157.568 336.106 157.568H324.179ZM316 175.053V127.021H326.7V175.053H316Z" fill="#16777D"/>
<path d="M357.843 175.053V141.988H368.271V175.053H357.843ZM368.271 156.888L363.909 153.486C364.772 149.631 366.226 146.637 368.271 144.505C370.316 142.374 373.155 141.308 376.79 141.308C378.381 141.308 379.767 141.557 380.948 142.056C382.175 142.51 383.242 143.235 384.151 144.233L377.949 152.057C377.495 151.558 376.927 151.173 376.245 150.901C375.564 150.629 374.791 150.492 373.928 150.492C372.201 150.492 370.815 151.037 369.77 152.125C368.771 153.168 368.271 154.756 368.271 156.888Z" fill="#16777D"/>
<path d="M386.929 175.053V141.988H397.357V175.053H386.929ZM392.177 137.43C390.541 137.43 389.178 136.886 388.088 135.797C387.043 134.663 386.52 133.302 386.52 131.715C386.52 130.082 387.043 128.721 388.088 127.633C389.178 126.544 390.541 126 392.177 126C393.813 126 395.153 126.544 396.198 127.633C397.243 128.721 397.766 130.082 397.766 131.715C397.766 133.302 397.243 134.663 396.198 135.797C395.153 136.886 393.813 137.43 392.177 137.43Z" fill="#16777D"/>
<path d="M404.7 175.053V141.988H415.128V175.053H404.7ZM425.897 175.053V155.731C425.897 154.053 425.374 152.76 424.329 151.853C423.33 150.901 422.08 150.424 420.581 150.424C419.536 150.424 418.604 150.651 417.786 151.105C416.968 151.513 416.309 152.103 415.81 152.874C415.355 153.645 415.128 154.597 415.128 155.731L411.107 153.962C411.107 151.332 411.675 149.086 412.811 147.227C413.947 145.322 415.492 143.87 417.445 142.873C419.399 141.829 421.603 141.308 424.057 141.308C426.374 141.308 428.441 141.829 430.259 142.873C432.122 143.916 433.598 145.367 434.689 147.227C435.779 149.086 436.325 151.309 436.325 153.894V175.053H425.897ZM447.093 175.053V155.731C447.093 154.053 446.571 152.76 445.526 151.853C444.526 150.901 443.277 150.424 441.777 150.424C440.732 150.424 439.801 150.651 438.983 151.105C438.165 151.513 437.506 152.103 437.006 152.874C436.552 153.645 436.325 154.597 436.325 155.731L430.327 154.915C430.418 152.103 431.077 149.699 432.303 147.703C433.576 145.662 435.234 144.097 437.279 143.009C439.369 141.875 441.709 141.308 444.299 141.308C446.843 141.308 449.093 141.852 451.046 142.941C453.046 143.984 454.613 145.503 455.749 147.499C456.93 149.449 457.521 151.808 457.521 154.575V175.053H447.093Z" fill="#16777D"/>
<path d="M478.039 175.733C474.995 175.733 472.269 174.985 469.861 173.488C467.498 171.991 465.612 169.95 464.204 167.365C462.841 164.78 462.159 161.832 462.159 158.521C462.159 155.21 462.841 152.261 464.204 149.676C465.612 147.091 467.498 145.05 469.861 143.553C472.269 142.056 474.995 141.308 478.039 141.308C480.266 141.308 482.265 141.739 484.037 142.6C485.855 143.462 487.331 144.664 488.467 146.206C489.603 147.703 490.239 149.427 490.376 151.377V165.664C490.239 167.614 489.603 169.361 488.467 170.903C487.377 172.4 485.923 173.579 484.105 174.441C482.288 175.302 480.266 175.733 478.039 175.733ZM480.152 166.344C482.379 166.344 484.173 165.619 485.536 164.167C486.9 162.671 487.581 160.788 487.581 158.521C487.581 156.978 487.263 155.618 486.627 154.438C486.036 153.259 485.173 152.352 484.037 151.717C482.947 151.037 481.674 150.697 480.22 150.697C478.766 150.697 477.471 151.037 476.335 151.717C475.245 152.352 474.359 153.259 473.677 154.438C473.041 155.618 472.723 156.978 472.723 158.521C472.723 160.017 473.041 161.355 473.677 162.535C474.313 163.714 475.199 164.644 476.335 165.324C477.471 166.004 478.744 166.344 480.152 166.344ZM487.172 175.053V166.14L488.74 158.112L487.172 150.084V141.988H497.396V175.053H487.172Z" fill="#16777D"/>
<path d="M504.738 175.053V141.988H515.166V175.053H504.738ZM515.166 156.888L510.804 153.486C511.667 149.631 513.121 146.637 515.166 144.505C517.21 142.374 520.05 141.308 523.685 141.308C525.276 141.308 526.661 141.557 527.843 142.056C529.07 142.51 530.137 143.235 531.046 144.233L524.844 152.057C524.39 151.558 523.822 151.173 523.14 150.901C522.458 150.629 521.686 150.492 520.823 150.492C519.096 150.492 517.71 151.037 516.665 152.125C515.666 153.168 515.166 154.756 515.166 156.888Z" fill="#16777D"/>
<path d="M543.781 175.189L530.15 141.988H541.396L550.051 168.317H545.894L554.754 141.988H566L551.824 175.189H543.781ZM535.262 189L545.212 167.569L551.824 175.189L545.962 189H535.262Z" fill="#16777D"/>
<path d="M55.2384 269.981V257.549H72.1681C75.2957 257.549 77.7434 256.632 79.5112 254.798C81.2789 252.963 82.1628 250.721 82.1628 248.072C82.1628 246.238 81.7549 244.607 80.939 243.181C80.1231 241.754 78.9672 240.633 77.4714 239.818C76.0436 239.003 74.2758 238.595 72.1681 238.595H55.2384V226.469H70.8423C73.494 226.469 75.6357 225.823 77.2674 224.533C78.8992 223.174 79.7151 221.136 79.7151 218.418C79.7151 215.769 78.8992 213.799 77.2674 212.508C75.6357 211.149 73.494 210.47 70.8423 210.47H55.2384V198.038H73.9019C78.5253 198.038 82.4348 198.887 85.6303 200.586C88.8939 202.284 91.3756 204.56 93.0754 207.413C94.7751 210.266 95.625 213.425 95.625 216.89C95.625 221.306 94.1972 225.042 91.3416 228.099C88.486 231.156 84.2705 233.262 78.6953 234.417L79.1032 229.016C85.1544 230.171 89.8118 232.515 93.0754 236.048C96.4069 239.58 98.0727 243.928 98.0727 249.091C98.0727 253.031 97.0868 256.598 95.1151 259.791C93.2113 262.916 90.4237 265.395 86.7522 267.23C83.1487 269.064 78.7972 269.981 73.6979 269.981H55.2384ZM43 269.981V198.038H58.8079V269.981H43Z" fill="#AB5050"/>
<path d="M127.611 271C123.055 271 118.976 269.879 115.372 267.637C111.837 265.395 109.015 262.338 106.907 258.466C104.868 254.594 103.848 250.178 103.848 245.219C103.848 240.26 104.868 235.844 106.907 231.971C109.015 228.099 111.837 225.042 115.372 222.8C118.976 220.558 123.055 219.438 127.611 219.438C130.942 219.438 133.934 220.083 136.585 221.374C139.305 222.664 141.515 224.465 143.214 226.774C144.914 229.016 145.866 231.598 146.07 234.519V255.918C145.866 258.84 144.914 261.455 143.214 263.765C141.583 266.007 139.407 267.773 136.687 269.064C133.968 270.355 130.942 271 127.611 271ZM130.772 256.938C134.104 256.938 136.789 255.851 138.829 253.677C140.869 251.435 141.889 248.615 141.889 245.219C141.889 242.909 141.413 240.871 140.461 239.105C139.577 237.338 138.285 235.98 136.585 235.029C134.954 234.01 133.05 233.5 130.874 233.5C128.698 233.5 126.761 234.01 125.061 235.029C123.429 235.98 122.103 237.338 121.083 239.105C120.132 240.871 119.656 242.909 119.656 245.219C119.656 247.461 120.132 249.465 121.083 251.231C122.035 252.997 123.361 254.39 125.061 255.409C126.761 256.428 128.664 256.938 130.772 256.938ZM141.277 269.981V256.632L143.622 244.607L141.277 232.583V220.457H156.575V269.981H141.277Z" fill="#AB5050"/>
<path d="M200.299 269.981V241.754C200.299 239.173 199.483 237.101 197.851 235.538C196.288 233.908 194.282 233.092 191.834 233.092C190.134 233.092 188.639 233.466 187.347 234.213C186.055 234.893 185.035 235.912 184.287 237.27C183.539 238.561 183.165 240.056 183.165 241.754L177.148 238.799C177.148 234.927 177.998 231.53 179.698 228.609C181.397 225.687 183.743 223.446 186.735 221.883C189.794 220.253 193.228 219.438 197.035 219.438C200.707 219.438 203.936 220.321 206.724 222.087C209.58 223.785 211.823 226.061 213.455 228.914C215.087 231.768 215.903 234.893 215.903 238.289V269.981H200.299ZM167.561 269.981V220.457H183.165V269.981H167.561Z" fill="#AB5050"/>
<path d="M257.642 269.981L240.305 244.302L257.54 220.457H274.98L254.175 247.257L254.685 240.837L276 269.981H257.642ZM225.925 269.981V196H241.529V269.981H225.925Z" fill="#AB5050"/>
<path d="M5.62714 338.239C4.20218 336.037 4.92601 333.09 7.20893 331.798C8.3829 331.134 9.79081 331.024 11.0536 331.498L62.4821 350.799C66.5471 352.325 71.0061 349.82 71.8182 345.555L82.1855 291.103C82.4186 289.878 83.1787 288.818 84.2638 288.204C86.3807 287.007 89.0691 287.831 90.1514 290.009L138.078 386.467C139.398 389.124 138.9 392.325 136.834 394.455L110.79 421.312C109.848 422.284 108.644 422.961 107.324 423.263L71.4317 431.463C68.5645 432.118 65.5936 430.911 63.9958 428.442L5.62714 338.239ZM68.6557 415.349C70.268 417.838 73.2738 419.041 76.158 418.352L101.244 412.355C102.507 412.053 103.66 411.406 104.577 410.486L123.366 391.619C125.478 389.499 126.008 386.271 124.686 383.586L99.6805 332.814C96.7551 326.875 87.9817 327.94 86.5633 334.408L80.0769 363.985C79.793 365.279 78.9716 366.392 77.8181 367.044C76.6504 367.705 75.2548 367.831 73.9878 367.389L46.2526 357.727C39.9575 355.534 34.4504 362.548 38.0748 368.143L68.6557 415.349Z" fill="url(#paint5_linear_4_8)"/>
<defs>
<linearGradient id="paint0_linear_4_8" x1="87211" y1="36913.2" x2="87211" y2="36163" gradientUnits="userSpaceOnUse">
<stop stop-color="#FF9F55"/>
<stop offset="1" stop-color="#FFD255"/>
</linearGradient>
<linearGradient id="paint1_linear_4_8" x1="97845" y1="39928.5" x2="97845" y2="41111" gradientUnits="userSpaceOnUse">
<stop stop-color="#40D5E6"/>
<stop offset="1" stop-color="#5577FF"/>
</linearGradient>
<linearGradient id="paint2_linear_4_8" x1="78344.5" y1="49437.4" x2="78344.5" y2="48343.1" gradientUnits="userSpaceOnUse">
<stop stop-color="#FF9F55"/>
<stop offset="1" stop-color="#FFD255"/>
</linearGradient>
<linearGradient id="paint3_linear_4_8" x1="80549.9" y1="46461.4" x2="80549.9" y2="47692.1" gradientUnits="userSpaceOnUse">
<stop stop-color="#40D5E6"/>
<stop offset="1" stop-color="#5577FF"/>
</linearGradient>
<linearGradient id="paint4_linear_4_8" x1="82701.2" y1="35569.2" x2="82701.2" y2="36332.4" gradientUnits="userSpaceOnUse">
<stop stop-color="#40D5E6"/>
<stop offset="1" stop-color="#5577FF"/>
</linearGradient>
<linearGradient id="paint5_linear_4_8" x1="45.5798" y1="310.09" x2="109.346" y2="422.801" gradientUnits="userSpaceOnUse">
<stop stop-color="#DE5AFF"/>
<stop offset="1" stop-color="#B829FB" stop-opacity="0"/>
</linearGradient>
</defs>
</svg>
