<svg width="127" height="127" viewBox="0 0 127 127" fill="none" xmlns="http://www.w3.org/2000/svg">
<circle cx="63.5" cy="63.5" r="63.5" fill="url(#paint0_linear_13_72)"/>
<path d="M29.1997 27.3549C29.0914 25.5352 30.5379 24 32.3608 24V24C33.2982 24 34.1875 24.4153 34.7892 25.1342L59.9516 55.1966C61.544 57.0992 64.4665 57.1081 66.0706 55.2153L91.64 25.0421C92.2002 24.3811 93.0227 24 93.8891 24V24C95.5795 24 96.9237 25.4184 96.833 27.1064L92.7805 102.465C92.6894 104.158 91.541 105.61 89.9144 106.088L64.1372 113.666C63.395 113.884 62.6055 113.882 61.8643 113.661L36.5217 106.091C34.9113 105.61 33.7734 104.174 33.6735 102.496L29.1997 27.3549ZM40.9734 96.1778C41.075 97.8693 42.2314 99.3133 43.8599 99.7819L61.9096 104.976C62.6225 105.182 63.3784 105.185 64.0928 104.985L82.747 99.7697C84.3937 99.3093 85.5657 97.8532 85.6635 96.1461L88.0895 53.7938C88.3058 50.0164 83.6425 48.0778 81.1173 50.8953L65.4232 68.406C64.8084 69.0919 63.9308 69.4839 63.0098 69.4839V69.4839C62.0774 69.4839 61.1901 69.0823 60.5748 68.3817L45.4403 51.1507C42.9264 48.2887 38.2137 50.2278 38.4421 54.0302L40.9734 96.1778Z" fill="white"/>
<defs>
<linearGradient id="paint0_linear_13_72" x1="63.5" y1="0" x2="63.5" y2="127" gradientUnits="userSpaceOnUse">
<stop stop-color="#654BAF"/>
<stop offset="0.585416" stop-color="#8349CC"/>
<stop offset="1" stop-color="#9E46C8"/>
</linearGradient>
</defs>
</svg>
