<svg width="625" height="158" viewBox="0 0 625 158" fill="none" xmlns="http://www.w3.org/2000/svg">
<circle cx="79" cy="79" r="79" fill="url(#paint0_linear_10_18)"/>
<path d="M45.392 35.784H50.512L81.616 90.824L112.592 35.784H117.328V124.872H45.392V35.784ZM50.128 120.264H112.592V45.384L83.792 96.072H79.312L50.128 44.616V120.264Z" fill="white"/>
<path fill-rule="evenodd" clip-rule="evenodd" d="M42.392 32.784H52.2625L81.6106 84.7168L110.838 32.784H120.328V127.872H42.392V32.784ZM81.616 90.824L50.512 35.784H45.392V124.872H117.328V35.784H112.592L81.616 90.824ZM50.128 44.616L79.312 96.072H83.792L112.592 45.384V120.264H50.128V44.616ZM53.128 55.9865V117.264H109.592V56.7368L85.5379 99.072H77.5646L53.128 55.9865Z" fill="white"/>
<path d="M180.528 123.088H175.792V34H211.632C217.605 34 223.109 35.28 228.144 37.84C233.264 40.4 237.317 44.0267 240.304 48.72C243.291 53.4133 244.784 58.832 244.784 64.976C244.784 70.864 243.248 76.2827 240.176 81.232C237.189 86.1813 233.093 89.9787 227.888 92.624C223.365 94.928 217.947 96.08 211.632 96.08H180.528V123.088ZM180.528 91.344H211.632C217.093 91.344 221.573 90.4907 225.072 88.784C229.595 86.6507 233.221 83.4507 235.952 79.184C238.683 74.9173 240.048 70.1813 240.048 64.976C240.048 59.856 238.683 55.1627 235.952 50.896C233.221 46.6293 229.552 43.4293 224.944 41.296C221.445 39.5893 217.008 38.736 211.632 38.736H180.528V91.344Z" fill="#4F4552"/>
<path d="M318.03 36.56C322.041 38.608 325.113 41.424 327.246 45.008C329.465 48.592 330.574 52.6027 330.574 57.04C330.574 61.2213 329.465 65.104 327.246 68.688C325.113 72.1867 322.126 74.96 318.286 77.008C322.809 78.544 326.563 81.36 329.55 85.456C332.537 89.552 334.03 94.0747 334.03 99.024C334.03 103.461 332.921 107.557 330.702 111.312C328.483 115.067 325.539 117.968 321.87 120.016C319.993 121.04 317.902 121.808 315.598 122.32C313.294 122.832 310.222 123.088 306.382 123.088H269.006V34H304.59C310.222 34 314.702 34.8533 318.03 36.56ZM315.982 73.296C319.054 71.76 321.486 69.5413 323.278 66.64C325.07 63.7387 325.966 60.5387 325.966 57.04C325.966 53.1147 324.942 49.7013 322.894 46.8C320.846 43.8133 318.243 41.6373 315.086 40.272C312.697 39.248 308.686 38.736 303.054 38.736H273.614V75.344H305.358C309.795 75.344 313.337 74.6613 315.982 73.296ZM319.054 116.432C322.211 114.811 324.729 112.464 326.606 109.392C328.483 106.235 329.422 102.821 329.422 99.152C329.422 95.312 328.441 91.856 326.478 88.784C324.515 85.6267 321.87 83.28 318.542 81.744C315.982 80.5493 312.526 79.952 308.174 79.952H273.614V118.48H306.51C309.753 118.48 312.313 118.309 314.19 117.968C316.067 117.627 317.689 117.115 319.054 116.432Z" fill="#4F4552"/>
<path d="M423.788 34V38.736H397.164V118.352H423.788V123.088H366.06V118.352H392.556V38.736H366.06V34H423.788Z" fill="#4F4552"/>
<path d="M487.178 34H492.17L528.778 123.088H523.658L511.626 93.648H467.722L455.562 123.088H450.57L487.178 34ZM469.642 89.04H509.706L489.61 40.144L469.642 89.04Z" fill="#4F4552"/>
<path d="M549.544 123.088V34H554.536L616.744 94.416V34H621.48V123.088H616.744V101.072L554.28 40.144V123.088H549.544Z" fill="#4F4552"/>
<path fill-rule="evenodd" clip-rule="evenodd" d="M183.528 126.088H172.792V31H211.632C218.046 31 224.017 32.3778 229.495 35.1613C235.082 37.9568 239.549 41.9464 242.835 47.1094C246.159 52.3336 247.784 58.3231 247.784 64.976C247.784 71.4104 246.098 77.3726 242.735 82.798C239.456 88.2253 234.942 92.4044 229.247 95.2985C224.213 97.8625 218.306 99.08 211.632 99.08H183.528V126.088ZM227.888 92.624C233.093 89.9787 237.189 86.1813 240.176 81.232C243.248 76.2827 244.784 70.864 244.784 64.976C244.784 58.832 243.291 53.4133 240.304 48.72C237.317 44.0267 233.264 40.4 228.144 37.84C223.109 35.28 217.605 34 211.632 34H175.792V123.088H180.528V96.08H211.632C217.947 96.08 223.365 94.928 227.888 92.624ZM225.072 88.784C229.595 86.6507 233.221 83.4507 235.952 79.184C238.683 74.9173 240.048 70.1813 240.048 64.976C240.048 59.856 238.683 55.1627 235.952 50.896C233.221 46.6293 229.552 43.4293 224.944 41.296C221.445 39.5893 217.008 38.736 211.632 38.736H180.528V91.344H211.632C217.093 91.344 221.573 90.4907 225.072 88.784ZM183.528 88.344H211.632C216.81 88.344 220.799 87.5307 223.757 86.0877L223.774 86.0791L223.792 86.0707C227.797 84.1815 230.995 81.3647 233.425 77.5668C235.838 73.7968 237.048 69.6248 237.048 64.976C237.048 60.4227 235.843 56.2916 233.425 52.5132C231.004 48.7293 227.774 45.9121 223.684 44.0184L223.656 44.0056L223.629 43.9923C220.665 42.5466 216.716 41.736 211.632 41.736H183.528V88.344ZM322.894 46.8C320.846 43.8133 318.243 41.6373 315.086 40.272C312.697 39.248 308.686 38.736 303.054 38.736H273.614V75.344H305.358C309.795 75.344 313.337 74.6613 315.982 73.296C319.054 71.76 321.486 69.5413 323.278 66.64C325.07 63.7387 325.966 60.5387 325.966 57.04C325.966 53.1147 324.942 49.7013 322.894 46.8ZM321.87 120.016C319.993 121.04 317.902 121.808 315.598 122.32C313.294 122.832 310.222 123.088 306.382 123.088H269.006V34H304.59C310.222 34 314.702 34.8533 318.03 36.56C322.041 38.608 325.113 41.424 327.246 45.008C329.465 48.592 330.574 52.6027 330.574 57.04C330.574 61.2213 329.465 65.104 327.246 68.688C325.737 71.1623 323.802 73.2738 321.439 75.0226C320.461 75.7466 319.41 76.4084 318.286 77.008C319.476 77.4121 320.613 77.9048 321.696 78.4862C324.731 80.1144 327.349 82.4377 329.55 85.456C332.537 89.552 334.03 94.0747 334.03 99.024C334.03 103.461 332.921 107.557 330.702 111.312C328.483 115.067 325.539 117.968 321.87 120.016ZM324.351 76.5519C327.274 78.3428 329.818 80.7317 331.974 83.6885C335.325 88.2845 337.03 93.4231 337.03 99.024C337.03 103.988 335.782 108.613 333.285 112.838C330.807 117.032 327.483 120.319 323.332 122.636L323.319 122.643L323.307 122.65C321.158 123.821 318.799 124.682 316.249 125.249C313.641 125.828 310.323 126.088 306.382 126.088H266.006V31H304.59C310.478 31 315.487 31.8844 319.399 33.8905C323.861 36.1701 327.366 39.3547 329.811 43.4512C332.329 47.5294 333.574 52.0845 333.574 57.04C333.574 61.7808 332.308 66.2069 329.802 70.259C328.332 72.6672 326.509 74.765 324.351 76.5519ZM318.542 81.744C315.982 80.5493 312.526 79.952 308.174 79.952H273.614V118.48H306.51C309.753 118.48 312.313 118.309 314.19 117.968C316.067 117.627 317.689 117.115 319.054 116.432C322.211 114.811 324.729 112.464 326.606 109.392C328.483 106.235 329.422 102.821 329.422 99.152C329.422 95.312 328.441 91.856 326.478 88.784C324.515 85.6267 321.87 83.28 318.542 81.744ZM324.037 107.843C325.632 105.154 326.422 102.275 326.422 99.152C326.422 95.8523 325.588 92.9625 323.95 90.3992L323.94 90.3836L323.93 90.3678C322.272 87.7009 320.072 85.7545 317.285 84.4679L317.273 84.4626C315.267 83.5263 312.301 82.952 308.174 82.952H276.614V115.48H306.51C309.679 115.48 312.033 115.311 313.653 115.016C315.31 114.715 316.644 114.281 317.699 113.756C320.346 112.393 322.447 110.439 324.037 107.843ZM276.614 72.344H305.358C309.533 72.344 312.544 71.6946 314.606 70.6301L314.623 70.6213L314.64 70.6127C317.218 69.3241 319.229 67.487 320.726 65.0635C322.217 62.6487 322.966 59.997 322.966 57.04C322.966 53.6659 322.096 50.8722 320.443 48.5301L320.431 48.5134L320.42 48.4966C318.675 45.9524 316.509 44.1574 313.902 43.0283C312.116 42.2639 308.642 41.736 303.054 41.736H276.614V72.344ZM426.788 31V41.736H400.164V115.352H426.788V126.088H363.06V115.352H389.556V41.736H363.06V31H426.788ZM392.556 38.736V118.352H366.06V123.088H423.788V118.352H397.164V38.736H423.788V34H366.06V38.736H392.556ZM485.167 31H494.181L533.254 126.088H521.643L509.611 96.648H469.729L457.569 126.088H446.094L485.167 31ZM467.722 93.648H511.626L523.658 123.088H528.778L492.17 34H487.178L450.57 123.088H455.562L467.722 93.648ZM489.61 40.144L509.706 89.04H469.642L489.61 40.144ZM489.619 48.0574L474.108 86.04H505.23L489.619 48.0574ZM546.544 126.088V31H555.753L613.744 87.3205V31H624.48V126.088H613.744V102.337L557.28 47.261V126.088H546.544ZM554.28 40.144L616.744 101.072V123.088H621.48V34H616.744V94.416L554.536 34H549.544V123.088H554.28V40.144Z" fill="#4F4552"/>
<defs>
<linearGradient id="paint0_linear_10_18" x1="79" y1="0" x2="79" y2="158" gradientUnits="userSpaceOnUse">
<stop stop-color="#6948C6"/>
<stop offset="1" stop-color="#9E46C8"/>
</linearGradient>
</defs>
</svg>
